<svg xmlns="http://www.w3.org/2000/svg" width="52" height="43"><path fill="#ffa912" d="M8.07 18.81h7.172v8.062H8.07z"/><path fill="#fec9a3" d="M19.609 27.145l-5.26-1.168V18.81h-5.38v7.167l-5.26 1.168A3.584 3.584 0 00.9 30.643v11.459h21.517v-11.46a3.584 3.584 0 00-2.808-3.497z"/><path fill="#feb784" d="M14.35 24.356V18.81H8.97v5.546a5.352 5.352 0 005.38 0z"/><path fill="#fec9a3" d="M17.039 15.225v2.688a5.377 5.377 0 01-5.38 5.375 5.377 5.377 0 01-5.379-5.375v-2.688a5.377 5.377 0 015.38-5.375 5.377 5.377 0 015.379 5.375z"/><path fill="#fec093" d="M17.035 15.229v2.687c0 2.62-1.89 4.859-4.475 5.3a6.45 6.45 0 001.62-4.286v-4.715a6.45 6.45 0 00-1.62-4.285 5.378 5.378 0 014.475 5.299z"/><path fill="#425b82" d="M19.609 27.15l-4.68-1.04-3.27 10.621L8.388 26.11l-4.68 1.039A3.584 3.584 0 00.9 30.647v11.459h21.517V30.647a3.584 3.584 0 00-2.808-3.498z"/><path fill="#3c5174" d="M7.174 42.103H5.381v-1.39c-2.091-1.98-2.394-4.95-.681-7.213l1.43 1.08c-1.218 1.61-.922 3.682.72 5.041.205.17.324.423.324.69zm10.759 0H16.14V40.31c0-.267.12-.52.325-.69 1.642-1.359 1.938-3.432.72-5.04l1.43-1.081c1.713 2.263 1.41 5.233-.681 7.213z"/><path fill="#49648e" d="M8.387 26.13L5.38 29.564l2.69 1.792-.897 1.791 4.483 3.584zm6.542 0l3.007 3.434-2.69 1.792.897 1.791-4.483 3.584z"/><path fill="#ffb531" d="M18.825 14.337v8.958a3.58 3.58 0 01-3.586 3.583V12.545l-3.587-1.792-3.586 1.792v14.333a3.585 3.585 0 01-3.586-3.583v-8.958a7.169 7.169 0 018.069-7.112 7.17 7.17 0 016.276 7.112z"/><path fill="#f7a116" d="M12.553 7.225V11.2l-.896-.448-.897.448V7.225a7.352 7.352 0 011.793 0z"/><path fill="#fec9a3" d="M43.935 25.977V18.81h-7.173v7.167l-4.456 1.113a3.584 3.584 0 00-2.716 3.476v11.536h21.517V30.566a3.584 3.584 0 00-2.716-3.476z"/><path fill="#c7c7c5" d="M43.935 25.98l-3.586 1.792-3.587-1.792-4.456 1.113a3.584 3.584 0 00-2.716 3.476v11.536h21.517V30.569a3.584 3.584 0 00-2.716-3.476z"/><path fill="#feb784" d="M43.932 23.704V18.81H36.76v4.893a5.36 5.36 0 007.172 0z"/><path fill="#425b82" d="M48.39 27.093l-4.455-1.113-3.586 14.333-3.587-14.333-4.456 1.113a3.584 3.584 0 00-2.716 3.476v11.536h21.517V30.569a3.584 3.584 0 00-2.716-3.476z"/><path fill="#fec9a3" d="M45.729 15.225v2.688a5.376 5.376 0 01-5.38 5.375 5.377 5.377 0 01-5.379-5.375v-2.688a5.377 5.377 0 015.38-5.375 5.377 5.377 0 015.379 5.375z"/><path fill="#fec093" d="M45.722 15.226v2.688a5.376 5.376 0 01-5.212 5.371 6.981 6.981 0 002.169-5.064v-5.093a6.975 6.975 0 00-.683-3.018 5.38 5.38 0 013.726 5.116z"/><path fill="#f98500" d="M45.729 12.543a3.585 3.585 0 00-3.587-3.583h-3.586a3.585 3.585 0 00-3.586 3.583v2.016l.717-.403c.784-.44 1.495-1.89 1.973-2.509a4.852 4.852 0 005.379 0c.492.866 1.049 2.53 1.972 3.123l.718.46v-2.303a2.61 2.61 0 00-.045-.384z"/><path fill="#49648e" d="M43.926 25.98l2.69 3.583-2.69 1.792.897 1.792-4.483 7.166z"/><path fill="#49648e" d="M36.76 25.98l-2.69 3.583 2.69 1.792-.897 1.792 4.483 7.166z"/><path fill="#e0e0de" d="M40.346 27.772L36.76 25.98l1.233 4.927z"/><path fill="#e0e0de" d="M43.926 25.98l-3.586 1.792 2.353 3.135z"/><path fill="#fec9a3" d="M30.478 22.397V15.23h-7.172v7.167l-6.083 1.215a3.584 3.584 0 00-2.883 3.514v14.979h25.103V27.126a3.584 3.584 0 00-2.882-3.514z"/><path fill="#feb784" d="M30.482 20.372V15.23H23.31v5.142a6.261 6.261 0 007.172 0z"/><path fill="#e0e0de" d="M30.478 22.4l-3.586 3.583-3.586-3.583-6.083 1.216a3.584 3.584 0 00-2.883 3.513v14.98h25.103v-14.98a3.584 3.584 0 00-2.882-3.513z"/><path fill="#ebebe9" d="M26.897 25.98l-3.586-4.48-2.331 1.362 3.228 5.805zm.003 0l3.586-4.48 2.331 1.362-3.227 5.805z"/><path fill="#d6d6d4" d="M37.05 23.75c-6.229 10.446-17.095 14.936-22.71 16.937V42.1h25.103V27.12a3.577 3.577 0 00-2.392-3.37z"/><path fill="#348fd9" d="M25.1 27.772v14.333h3.586V27.772l-1.793-1.792z"/><path fill="#fec9a3" d="M33.172 8.96v4.48a6.273 6.273 0 01-7.108 6.216 6.274 6.274 0 01-5.444-6.216V8.96c0-3.462 2.81-6.27 6.276-6.27a6.268 6.268 0 016.276 6.27z"/><path fill="#fec093" d="M33.177 8.954v4.479a6.273 6.273 0 01-7.107 6.216 8.023 8.023 0 003.214-6.428V7.374A7.993 7.993 0 0027.82 2.75a6.272 6.272 0 015.358 6.204z"/><path fill="#95573a" d="M21.337 8.423l-.717.538V6.273a3.585 3.585 0 013.586-3.583 7.165 7.165 0 01-2.869 5.733zm11.122-.081l.717.615V5.885c0-2.262-1.605-4.095-3.586-4.095 0 2.578 1.063 5.005 2.869 6.552z"/><path fill="#8f4d2e" d="M20.62.9h8.069a4.481 4.481 0 014.483 4.48H23.31a2.689 2.689 0 01-2.69-2.688V.9z"/><path fill="#3086cd" d="M26.893 25.98L25.1 27.772v1.791l1.793-1.791 1.793 1.791v-1.791z"/><path d="M36.76 15.23h1.793v1.792H36.76zm5.38 0h1.793v1.792H42.14zM23.31 9.85h1.793v1.792H23.31zm5.38 0h1.793v1.792H28.69z"/><path d="M5.94 27.566l-1.233 1.407a.895.895 0 00.178 1.335l2.033 1.353-.543 1.084a.895.895 0 00.241 1.1l4.417 3.542c.384.306.981.21 1.28-.006.414-.3.844-.698 1.145-.938v4.765h-6.28v-.896c0-.266-.12-.52-.326-.69-1.643-1.358-1.94-3.431-.72-5.04L4.7 33.502c-1.715 2.262-1.412 5.233.681 7.214v.492H1.793V30.646A2.679 2.679 0 013.9 28.018zm-.56-13.233a6.26 6.26 0 015.379-6.206v2.07l-3.09 1.543a.896.896 0 00-.496.802v12.914l-.515.114a2.671 2.671 0 01-1.279-2.278zm12.55 8.227s-1.505.337-1.793.466V12.542c0-.34-.192-.65-.496-.802l-3.09-1.544V8.128a6.281 6.281 0 015.38 6.205zm5.163.105l2.601 3.248-1.281 1.281-2.225-4zM21.517 9.406l.364-.272a8.084 8.084 0 002.375-2.857l.003-.006h5.484a8.943 8.943 0 002.127 2.748l.406.35v4.068a5.36 5.36 0 01-2.311 4.411 5.364 5.364 0 01-6.144-.005 5.355 5.355 0 01-2.304-4.406zm0-3.135c0-.154.015-.307.041-.458.226.129.466.232.715.307a6.2 6.2 0 01-.756.952zm0-4.48h7.166a3.59 3.59 0 013.47 2.688h-8.844a1.794 1.794 0 01-1.792-1.792zm10.77 4.48v.624a7.356 7.356 0 01-.472-.624zm1.782 11.646a6.234 6.234 0 001.793 4.378v.265l-2.725-.547-1.758-1.027v-1.957a7.148 7.148 0 002.69-5.583zm0-4.47v-.01.01zm1.793-.897a2.696 2.696 0 012.69-2.696h3.586a2.696 2.696 0 012.678 2.45c.012.351.012.912.012.912-.213-.364-.867-1.75-1.014-2.009a.897.897 0 00-1.277-.303 3.935 3.935 0 01-4.384 0 .895.895 0 00-1.208.198c-.164.214-.337.488-.52.778-.16.252-.36.567-.563.847zm7.467 8.698a4.486 4.486 0 01-4.812.747 4.479 4.479 0 01-2.655-4.078v-2.688c0-.05.004-.1.006-.151l.254-.143c.752-.423 1.318-1.315 1.817-2.102l.002-.003a5.728 5.728 0 004.705.046c.44.93.99 2.076 1.876 2.646l.306.196v2.199a4.446 4.446 0 01-1.499 3.331zm6.878 19.96h-2.69v-6.27h-1.793v6.27h-5.376.014c.577-.012.82-.542 1.082-.963l4.144-6.625a.895.895 0 00.042-.875l-.543-1.085 2.031-1.353a.896.896 0 00.22-1.282l-1.176-1.566 2.005.5a2.691 2.691 0 012.04 2.607zm-7.182-15.782l-2.683 1.343-.015-.007a4.474 4.474 0 00-1.19-2.693 6.217 6.217 0 003.888-.49zm.725 4.972l.59-2.376.985 1.32zm-.433 1.731l.484.968-1.211 1.936zm-1.034-3.269l-.576-.768.88-.44zm-.561 2.236l-1.377 5.506V29.27l.002-.003zM34.96 41.208V29.562h-1.791v11.646h-3.583V29.562c.042 0 .56.028.783-.46l2.906-5.233 3.102.623a.768.768 0 01.128.028l.023.007a2.683 2.683 0 012.014 2.599v14.082zm-8.96 0V28.142l.897-.896.896.896v13.066zm3.376-14.015l-1.278-1.28 2.594-3.248.902.528zm-5.169-7.108a7.224 7.224 0 005.38 0v1.1l-2.69 3.36-2.69-3.36zm-3.586 21.123V29.562h-1.793v11.646H15.24V27.126c0-1.24.952-2.39 2.169-2.634l3.104-.623 2.91 5.233c.157.284.457.46.783.46v11.646zM13.448 27.86l-1.793 5.821-2.15-6.987a.896.896 0 00.357-.715v-2.053a6.287 6.287 0 003.586 0zM11.65 11.752l2.685 1.345v2.135h-.895v1.794h.895v4.478a3.619 3.619 0 01-.455.3 4.432 4.432 0 01-4.48-.012 3.619 3.619 0 01-.434-.288v-4.478h.895v-1.794h-.895v-2.135zM8.566 30.609l-1.839-1.226 1.276-1.456 1.938 6.285-1.642-1.313.572-1.144a.895.895 0 00-.305-1.146zM52 43V30.566a4.482 4.482 0 00-3.396-4.345l-3.776-.942v-2.985a6.236 6.236 0 001.793-4.377v-5.375a4.486 4.486 0 00-4.483-4.48h-3.586a4.486 4.486 0 00-4.483 4.48V5.375A5.383 5.383 0 0028.69 0h-8.068a.896.896 0 00-.897.896v1.791c0 .59.146 1.17.425 1.69a4.431 4.431 0 00-.425 1.894v7.166a7.146 7.146 0 002.69 5.592v1.957l-1.758 1.027-.932.187v-7.867a8.061 8.061 0 00-4.034-6.982 8.075 8.075 0 00-8.07 0 8.061 8.061 0 00-4.034 6.982v8.959c.002.996.337 1.964.951 2.749l-1.03.229A4.46 4.46 0 000 30.646V43z"/></svg>