<svg xmlns="http://www.w3.org/2000/svg" width="52" height="52"><path fill="#fec9a3" d="M45.437 51.06a3.366 3.366 0 01-3.807-1.968l-4.377-12.689v2.656c1.366 2.39 1.024 5.494-.867 7.744v5.2h-15.6v-5.2c-1.857-2.21-2.163-5.243-.866-7.615v-2.785l-6.934 6.762-2.6 2.537a3.063 3.063 0 01-4.957-3.574l7.557-8.597 2.262-2.573a6.936 6.936 0 015.208-2.355h4.664V21.67h6.933v6.933h5.83a5.195 5.195 0 014.914 3.5l5.01 14.47c.667 1.93-.373 4.057-2.37 4.487z"/><path fill="#fec093" d="M45.43 51.053a3.366 3.366 0 01-3.809-1.967l-4.376-12.689v2.655c1.366 2.39 1.024 5.495-.867 7.745v5.2H21.96c7.586-4.35 13.836-10.46 16.948-23.297a5.203 5.203 0 013.881 3.396l5.01 14.47c.667 1.93-.373 4.057-2.37 4.488z"/><path fill="#feb784" d="M29.1 26.003a4.755 4.755 0 002.943-1.062V21.67H25.11v3.27a4.755 4.755 0 002.944 1.063z"/><path fill="#fec093" d="M12.986 33.53v9.634l-2.6 2.536a3.063 3.063 0 01-4.957-3.574z"/><path fill="#3d4d63" d="M20.779 51.997v-5.2c-2.145-2.552-2.226-6.205-.152-8.667h15.978c2.074 2.462 1.918 6.115-.226 8.667v5.2"/><path fill="#fec9a3" d="M36.38 10.403v6.067a7.8 7.8 0 01-15.6 0v-6.067a6.933 6.933 0 016.933-6.933h1.734a6.926 6.926 0 016.933 6.933z"/><path fill="#fec093" d="M31.666 3.833a9.536 9.536 0 00-7.056 9.207v10.146a7.8 7.8 0 01-3.83-6.716v-6.067a6.933 6.933 0 016.933-6.933h1.734a6.93 6.93 0 012.22.363z"/><path fill="#fec093" d="M36.395 10.403v6.067c0 4.308-3.496 7.8-7.81 7.8-.241 0-.48-.01-.715-.033a9.525 9.525 0 004.44-8.056v-5.2a9.518 9.518 0 00-3.667-7.511h.81a6.937 6.937 0 016.942 6.933z"/><path fill="#ffa912" d="M38.117 10.403v14.4a6.891 6.891 0 01-4.334 6.4V11.552a7.583 7.583 0 00-1.435-4.447 7.59 7.59 0 00-3.765-2.768 7.605 7.605 0 00-5.2 7.215v19.651a6.891 6.891 0 01-4.333-6.4v-14.4A9.537 9.537 0 0131.942 1.48a9.537 9.537 0 016.175 8.924z"/><path fill="#f7a116" d="M23.12 31.095c.087-.118.172-.236.257-.355v.465a5.372 5.372 0 01-.257-.11zm14.995-20.69v14.4a6.891 6.891 0 01-4.333 6.4V11.552a7.583 7.583 0 00-1.213-4.119 22.185 22.185 0 00-.629-5.954 9.537 9.537 0 016.175 8.925z"/><path fill="#fec9a3" d="M5.836 24.27L4.32 43.214c-.154 1.936 1.437 3.59 3.457 3.59 1.914 0 3.466-1.493 3.466-3.334v-19.2z"/><path fill="#3d4d63" d="M15.456 16.97L.87 22.402l1.036 3.41 15.103-3.726z"/><path fill="#3d4d63" d="M15.193 16.12c-1.822.562-2.835 2.544-2.263 4.428.572 1.883 2.512 2.955 4.334 2.393 1.822-.563 2.835-2.545 2.263-4.429-.572-1.883-2.512-2.955-4.334-2.392z"/><path fill="#fec9a3" d="M11.893 17.14L4.47 19.43l1.553 5.116a1.745 1.745 0 002.167 1.196l4.124-1.272a1.764 1.764 0 001.131-2.214z"/><path fill="#fec093" d="M13.446 22.253l-.538-1.773a1.953 1.953 0 01-1.305 1.388l-4.686 1.446a1.898 1.898 0 01-1.287-.068l.394 1.297A1.745 1.745 0 008.19 25.74l4.124-1.272a1.764 1.764 0 001.132-2.214z"/><path fill="#fec9a3" d="M45.047 51.137a3.467 3.467 0 01-3.467-3.467v-.199c0-.441.084-.878.248-1.288l1.485-3.713h5.2v5.2a3.467 3.467 0 01-3.466 3.467z"/><path fill="#374559" d="M45.91 26.87h3.467v5.2H45.91z"/><path fill="#3d4d63" d="M44.965 22.47l-1.655 4.055 6.145 2.14 1.655-4.054z"/><path fill="#d6d6d4" d="M45.91 32.07h3.467v19.933H45.91z"/><path fill="#fec9a3" d="M50.25 42.463h-6.067a1.733 1.733 0 01-1.733-1.733v-3.467c0-.957.776-1.733 1.733-1.733h6.067z"/><path fill="#fec093" d="M48.51 35.53h1.733v6.933H48.51z"/><path fill="#374559" d="M35.94 38.13c-3.71 7.181-9.18 11.64-12.64 13.867h13.08v-5.2c2.145-2.552 2.3-6.205.227-8.667z"/><path fill="#fec093" d="M45.913 44.203V42.47h-2.6l-.693 1.733z"/><path fill="#c7c7c5" d="M45.91 42.47h3.467v1.733H45.91z"/><path fill="#f7a116" d="M29.443.909v3.776a7.696 7.696 0 00-.866-.348 7.696 7.696 0 00-.867.348V.91a9.532 9.532 0 011.733 0z"/><path d="M28.6 19.93a2.603 2.603 0 002.6-2.6h-1.733a.867.867 0 11-1.734 0H26a2.603 2.603 0 002.6 2.6z"/><path d="M4.378 22.028l.632 2.082a.485.485 0 00-.008.055l-2.486.614-.563-1.848zm6.97-3.804l1.302 4.289a.9.9 0 01-.558 1.136l-4.13 1.274a.821.821 0 01-.631-.064.93.93 0 01-.452-.557l-1.305-4.297zm4.856-1.386c.416.001.825.104 1.192.3.642.343 1.12.928 1.325 1.624.434 1.423-.325 2.922-1.69 3.342a2.508 2.508 0 01-1.924-.19 2.712 2.712 0 01-1.325-1.623c-.433-1.423.325-2.922 1.689-3.342.237-.073.485-.11.733-.11zM27.736 1.776v1.958a8.451 8.451 0 00-5.2 7.81v18.212a6.093 6.093 0 01-2.6-4.96v-2.913a4.487 4.487 0 00.443-3.62 4.568 4.568 0 00-.443-1.008V10.4a8.61 8.61 0 012.537-6.13 8.6 8.6 0 015.263-2.494zm9.534 23.02a5.952 5.952 0 01-1.007 3.322.877.877 0 00-.046.078 5.995 5.995 0 01-1.547 1.563V11.544a8.472 8.472 0 00-5.2-7.81V1.778a8.679 8.679 0 017.8 8.623zM28.602 5.253a6.74 6.74 0 014.334 6.29v.665a1.3 1.3 0 100 2.448v7.215a6.917 6.917 0 01-8.667 0v-7.215a1.3 1.3 0 100-2.448v-.665a6.721 6.721 0 014.333-6.29zm14.303 29.761a2.6 2.6 0 00-1.302 2.252v3.466c0 .688.273 1.348.76 1.835l-.993 2.482-.192.481-3.042-7.565v-3.3h-1.733v2.6h-15.6v-2.6H19.07v1.369l-6.934 6.763v-8.003l2.24-2.939a6.107 6.107 0 014.824-2.39h.573a7.69 7.69 0 003.306 2.538.867.867 0 001.19-.804v-1.733h.867a.867.867 0 00.867-.867v-3.868a8.635 8.635 0 005.2 0V28.6c0 .479.388.867.867.867h.866V31.2a.867.867 0 001.187.805 7.674 7.674 0 003.315-2.538h.464a4.34 4.34 0 014.095 2.917zm3.898-2.082h1.743v1.744h-1.743zm1.743-3.68V31.2h-1.743v-2.55zm-3.061-5.695l4.514 1.57-1.001 2.447-4.514-1.57zM44.202 41.6a.867.867 0 01-.866-.867v-3.466c0-.479.388-.866.866-.867h4.845c.191 0 .346.155.346.347v4.506a.346.346 0 01-.346.347zm.868 8.651a2.653 2.653 0 01-.17.015 2.591 2.591 0 01-2.43-2.593v-.2a2.64 2.64 0 01.19-.972l1.263-3.168h1.147zM14.572 23.59a4.208 4.208 0 003.631-.087v1.295a7.73 7.73 0 00.585 2.953 7.854 7.854 0 00-5.79 3.063l-.862 1.133V25.44l.458-.14a2.584 2.584 0 001.674-1.637zM5.209 43.281l1.354-16.877c.59.302 1.274.361 1.907.165l1.933-.596v17.49c0 1.33-1.091 2.41-2.486 2.462h-.019a.863.863 0 00-.113.008 2.665 2.665 0 01-1.94-.844 2.363 2.363 0 01-.636-1.808zM.058 22.656l1.04 3.415a.867.867 0 00.828.614c.07 0 2.932-.699 2.932-.699L3.481 43.142a4.078 4.078 0 001.09 3.122 4.404 4.404 0 003.232 1.403c.029 0 .07 0 .12-.004a3.932 3.932 0 003.115-1.372l8.032-7.835v.507c-1.299 2.554-1.003 5.73.866 8.143V52h1.734v-5.2a.867.867 0 00-.203-.557c-1.796-2.138-1.94-5.122-.394-7.243h15.134c1.52 2.099 1.347 5.082-.468 7.243a.867.867 0 00-.203.557V52h1.734v-4.894a8.096 8.096 0 001.466-3.001l2.103 5.23A4.198 4.198 0 0044.74 52h2.063v-8.667h1.733V52h1.734v-9.06c.543-.39.866-1.018.866-1.687v-4.506c0-.67-.323-1.297-.866-1.686V29.02l.014-.028 1.655-4.055a.867.867 0 00-.518-1.146l-6.144-2.14a.867.867 0 00-1.088.49l-1.655 4.055a.867.867 0 00.517 1.146l2.019.703v6.622h-.452l-.983-2.85a6.077 6.077 0 00-5.22-4.061 7.7 7.7 0 00.588-2.96V10.4A10.414 10.414 0 0029.47.036V0h-1.734v.036A10.394 10.394 0 0018.203 10.4v5.206a4.23 4.23 0 00-5.454 1.292l-.003-.011a.867.867 0 00-1.085-.576L4.24 18.6a.867.867 0 00-.574 1.08l.208.685L.585 21.59a.867.867 0 00-.526 1.065z"/><path d="M12.134 9.533a1.733 1.733 0 101.728 1.837l.86-5.16a.867.867 0 00-.855-1.01h-5.2a.867.867 0 00-.855.724l-.605 3.633a1.732 1.732 0 101.455 1.813l.74-4.437h3.442l-.437 2.624a1.732 1.732 0 00-.273-.024z"/></svg>