<svg xmlns="http://www.w3.org/2000/svg" width="53" height="52"><path fill="#126099" d="M17.154 15.584L14.54 18.18l-5.23-5.198 2.612-2.596z"/><path fill="#ffa230" d="M12.567 19.093a2.606 2.606 0 01-2.614-2.598v-.407a2.594 2.594 0 011.072-2.104l3.816-2.753A7.985 7.985 0 0016.923.91L1.24 10.434V51.13h39.208V19.093z"/><path fill="#fa962a" d="M1.24 46.888v4.243h39.208V21.51C31.212 37.112 12.044 44.083 1.24 46.888z"/><path fill="#126099" d="M39.701 14.033l-4.356 4.328-2.612-2.595 4.356-4.328zm-9.706-8.788c0 1.913-1.562 3.463-3.487 3.463-1.926 0-3.487-1.55-3.487-3.463s1.561-3.463 3.487-3.463c1.925 0 3.487 1.55 3.487 3.463zm1.74 0c0-2.87-2.34-5.195-5.227-5.195-2.888 0-5.228 2.326-5.228 5.195 0 2.87 2.34 5.195 5.228 5.195 2.887 0 5.227-2.326 5.227-5.195z"/><path fill="#4398d1" d="M29.118 4.38H23.89v1.732h1.743v6.927h1.742V6.112h1.743z"/><path fill="#4398d1" d="M26.504 44.212c9.143 0 16.555-7.365 16.555-16.451S35.647 11.31 26.504 11.31c-9.142 0-16.554 7.365-16.554 16.451s7.412 16.451 16.554 16.451z"/><path fill="#3e8cc7" d="M39.019 17.01C33.956 28.725 23.675 35.262 14.3 38.881c6.264 6.619 16.741 6.937 23.4.713 6.405-5.986 6.984-15.902 1.319-22.584z"/><path fill="#de4c3c" d="M33.377 16.02l-1.551-.78-5.428 10.78a1.734 1.734 0 00-1.635 1.832 1.738 1.738 0 001.844 1.624 1.736 1.736 0 001.638-1.726c0-.338-.1-.669-.288-.952z"/><path fill="#126099" d="M25.63 13.91h1.742v1.732H25.63zm0 25.97h1.742v1.732H25.63zm-4.42-23.085l-1.51.865-.87-1.5 1.51-.865zM17.801 20.6l-.87 1.5-1.51-.866.87-1.5zm-5.241 6.29h1.742v1.732H12.56zm3.592 8.227l-1.471.843-.871-1.5 1.471-.843zm5.046 3.547l-.87 1.5-1.51-.866.87-1.5z"/><path fill="#fdb62f" d="M33.476 42.48h7.842c2.406 0 4.356 1.939 4.356 4.33 0 2.39-1.95 4.328-4.356 4.328h-7.842c-2.405 0-4.356-1.938-4.356-4.329 0-2.39 1.95-4.329 4.356-4.329zm3.48-8.66h7.842c2.406 0 4.356 1.939 4.356 4.33 0 2.39-1.95 4.328-4.356 4.328h-7.842c-2.405 0-4.356-1.938-4.356-4.329 0-2.39 1.95-4.329 4.356-4.329zm2.62-8.66h7.842c2.406 0 4.356 1.939 4.356 4.33 0 2.39-1.95 4.328-4.356 4.328h-7.842c-2.405 0-4.356-1.938-4.356-4.329 0-2.39 1.95-4.329 4.356-4.329zm0-8.66h7.842c2.406 0 4.356 1.939 4.356 4.33 0 2.39-1.95 4.328-4.356 4.328h-7.842c-2.405 0-4.356-1.938-4.356-4.329 0-2.39 1.95-4.329 4.356-4.329z"/><path fill="#fdb62f" d="M39.576 16.5h7.842c2.406 0 4.356 1.939 4.356 4.33 0 2.39-1.95 4.328-4.356 4.328h-7.842c-2.405 0-4.356-1.938-4.356-4.329 0-2.39 1.95-4.329 4.356-4.329z"/><path fill="#ffa230" d="M35.58 22.56a4.358 4.358 0 003.99 2.598h7.842a4.358 4.358 0 003.99-2.598zm0 8.66a4.358 4.358 0 003.99 2.598h7.842a4.358 4.358 0 003.99-2.598zm-2.61 8.66a4.358 4.358 0 003.99 2.598h7.842a4.358 4.358 0 003.99-2.598zm-3.49 8.66a4.358 4.358 0 003.99 2.598h7.842a4.358 4.358 0 003.99-2.598z"/><path d="M26.398 26.02a1.734 1.734 0 00-1.635 1.833 1.738 1.738 0 001.844 1.624 1.736 1.736 0 001.638-1.726c0-.338-.1-.669-.288-.952l5.42-10.78-1.551-.779zm-.768-12.11h1.742v1.732H25.63zm0 25.97h1.742v1.732H25.63zm-4.42-23.085l-1.51.865-.87-1.5 1.51-.865zM17.801 20.6l-.87 1.5-1.51-.866.87-1.5zm-5.241 6.29h1.742v1.732H12.56zm3.592 8.227l-1.471.843-.871-1.5 1.471-.843zm5.046 3.547l-.87 1.5-1.51-.866.87-1.5z"/><path d="M47.41 24.283h-7.842c-1.925 0-3.485-1.548-3.485-3.458 0-1.91 1.56-3.459 3.485-3.459h7.842c1.924 0 3.485 1.549 3.485 3.459 0 1.91-1.56 3.458-3.485 3.458zm3.485 5.205c0 1.913-1.56 3.463-3.485 3.463h-7.842c-1.925 0-3.485-1.55-3.485-3.463s1.56-3.463 3.485-3.463h7.842c1.924 0 3.485 1.55 3.485 3.463zm-6.1 12.122h-7.84c-1.925 0-3.486-1.55-3.486-3.464 0-1.912 1.56-3.463 3.485-3.463h7.842c1.924 0 3.485 1.55 3.485 3.463s-1.56 3.464-3.485 3.464zm-3.477 8.658h-7.847c-1.926 0-3.487-1.55-3.487-3.463s1.561-3.463 3.487-3.463h7.847c1.926 0 3.488 1.55 3.488 3.463s-1.562 3.463-3.488 3.463zM2.103 10.926l14.454-8.781a7.16 7.16 0 01-2.256 8.392l-3.808 2.753a3.456 3.456 0 00-1.42 2.806v.407a3.465 3.465 0 002.039 3.144c-4.51 8.45-1.271 18.935 7.23 23.417a17.515 17.515 0 008.157 2.018c.699 0 1.397-.043 2.09-.13a5.274 5.274 0 00-.348 1.862 5.179 5.179 0 001.342 3.464H2.103zM14.37 15.35l-1.577-1.567 1.603-1.16 1.455 1.454c-.517.396-1.012.82-1.48 1.273zm8.644-10.105c-.007-1.912 1.549-3.468 3.473-3.474 1.925-.006 3.49 1.54 3.497 3.452a3.467 3.467 0 01-2.614 3.365V6.11h1.742V4.38h-5.227v1.73h1.742v2.476a3.468 3.468 0 01-2.613-3.342zm15.683 7.282l1.385 1.377-1.464 1.446c-.47-.452-.963-.876-1.48-1.273zM10.815 16.5v-.407c.004-.48.21-.939.567-1.264l1.795 1.784c-.413.487-.8.996-1.16 1.524a1.733 1.733 0 01-1.202-1.637zm25.87 8.659a5.174 5.174 0 00-.872 7.922 5.202 5.202 0 00-4.087 5.066 5.12 5.12 0 001.36 3.463 5.244 5.244 0 00-3.102 1.342c-1.143.26-2.313.391-3.485.39-8.662 0-15.683-6.978-15.683-15.586 0-8.607 7.021-15.585 15.683-15.585a15.58 15.58 0 0110.577 4.096 5.178 5.178 0 00-.392 8.892zm15.952-4.33c0-2.869-2.34-5.194-5.227-5.194h-6.613l1.132-1.117a.862.862 0 000-1.23l-2.614-2.597a.875.875 0 00-1.232-.006l-.005.006-2.396 2.346a17.546 17.546 0 00-8.312-2.598v-.12c2.846-.479 4.764-3.16 4.283-5.99-.48-2.828-3.18-4.734-6.026-4.256-2.846.478-4.764 3.16-4.283 5.989a5.212 5.212 0 004.283 4.256v.121a17.318 17.318 0 00-8.32 2.598l-1.517-1.515A8.861 8.861 0 0017.672.482a.874.874 0 00-1.19-.315l-.02.012L.777 9.704a.864.864 0 00-.418.736v40.694c0 .478.39.866.871.866h40.08c2.887 0 5.227-2.326 5.227-5.195a5.12 5.12 0 00-1.359-3.463c2.879-.219 5.035-2.714 4.816-5.576a5.172 5.172 0 00-1.435-3.195c2.816-.632 4.584-3.413 3.948-6.212a5.198 5.198 0 00-2.206-3.183 5.183 5.183 0 002.335-4.346z"/></svg>