<svg xmlns="http://www.w3.org/2000/svg" width="52" height="52"><path fill="#8f4d2e" d="M39.476 27.763l-.286 2.573-.193 1.733H14.73l-.193-1.733-.286-2.573c-.254-2.29.09-4.606.997-6.724.8-1.866 1.163-3.89 1.062-5.918l-.15-2.999a10.718 10.718 0 1121.408 0l-.15 2.999a13.35 13.35 0 001.061 5.918 13.328 13.328 0 01.997 6.724z"/><path fill="#82462a" d="M39.482 27.764l-.286 2.573H29.47v-9.534l1.733-3.466v-6.934a9.543 9.543 0 00-7.013-9.196 10.73 10.73 0 0113.385 10.916l-.151 2.998c-.1 2.028.262 4.052 1.062 5.919a13.328 13.328 0 01.996 6.724z"/><path fill="#fec9a3" d="M31.547 28.603a1.213 1.213 0 01-1.214-1.213v-5.72H23.4v5.72a1.213 1.213 0 01-1.213 1.213H20.8v5.2h12.133v-5.2z"/><path fill="#feb784" d="M27.39 26.003a4.755 4.755 0 002.943-1.062V21.67H23.4v3.27a4.755 4.755 0 002.944 1.063z"/><path fill="#fec9a3" d="M34.67 12.13v4.333a7.8 7.8 0 01-15.6 0V12.13a11.758 11.758 0 003.998-4.528l.335-.672.492.41a21.584 21.584 0 0010.775 4.79z"/><path fill="#fec093" d="M34.672 12.132v4.333a7.804 7.804 0 01-6.312 7.658 9.499 9.499 0 002.845-6.791V11.34c1.132.359 2.291.624 3.467.792z"/><path fill="#e0e0de" d="M22.53 32.07h8.667v6.067H22.53z"/><path fill="#ec8c8c" d="M44.518 51.098a2.63 2.63 0 01-2.921-1.746l-5.725-10.739a6.75 6.75 0 01-1.209 6.454V52h-15.6v-6.933a6.76 6.76 0 01-1.196-6.534l-5.817 10.82A2.63 2.63 0 017.057 47.7l6.363-15.84a5.198 5.198 0 014.825-3.261h3.418l5.2 9.533 5.2-9.533h3.405a5.204 5.204 0 014.832 3.28L46.59 47.7a2.631 2.631 0 01-2.072 3.397z"/><path fill="#f59898" d="M6.309 47.996l.625-8.126h5.2v8.35a2.917 2.917 0 11-5.825-.224z"/><path fill="#fec9a3" d="M8.976 27.22a1.686 1.686 0 00-1.1 2.39l.794 1.586H5.564a5.2 5.2 0 01-2.325-.548l-.864-.432a1.04 1.04 0 00-1.505.93v2.446c0 .656.371 1.257.958 1.55l1.41.706a5.2 5.2 0 002.326.548h6.573v-5.2L10.95 28.23a1.686 1.686 0 00-1.974-1.01z"/><path fill="#e0e0de" d="M6.93 36.4h5.2v3.467h-5.2z"/><path fill="#e07f7f" d="M44.52 51.098a2.63 2.63 0 01-2.922-1.745l-5.724-10.74a6.75 6.75 0 01-1.209 6.454v6.934H19.35c7.153-4.672 13.188-10.6 18.254-22.941a5.192 5.192 0 012.698 2.82l6.29 15.822a2.631 2.631 0 01-2.072 3.396z"/><path fill="#a36548" d="M38.997 48.537l-8.667-1.734V34.67l8.667 1.733z"/><path fill="#8f4d2e" d="M42.47 48.537l8.667-1.734V34.67l-8.667 1.733z"/><path fill="#95573a" d="M39 36.4h3.467v12.133H39z"/><path fill="#d4bd81" d="M40.73 36.403a3.07 3.07 0 00-2.565-3.027L30.33 32.07v2.6l8.667 1.733h1.733a3.07 3.07 0 012.565-3.027l7.835-1.306v2.6l-8.667 1.733z"/><path fill="#fec9a3" d="M49.546 48.447l-3.467.578a.867.867 0 01-1.009-.855v-3.22c0-.552.399-1.022.943-1.113l2.943-.49a1.128 1.128 0 011.314 1.112v3.134a.867.867 0 01-.724.855z"/><path d="M22.97 13a1.3 1.3 0 100 2.6 1.3 1.3 0 000-2.6zm7.8 0a1.3 1.3 0 100 2.6 1.3 1.3 0 000-2.6zm-3.9 5.197a.868.868 0 01-.867-.867H24.27a2.6 2.6 0 005.2 0h-1.733a.868.868 0 01-.867.867z"/><path d="M48.818 42.5l-2.947.49a1.99 1.99 0 00-1.67 1.97v2.353l-.868.174V37.112l6.944-1.388v7.1a1.993 1.993 0 00-1.459-.324zm.582 5.096l-3.467.578v-3.222a.26.26 0 01.219-.258l2.944-.49a.262.262 0 01.304.258v3.134zm-5.304 2.67a1.776 1.776 0 01-1.527-.873.813.813 0 00.048-.007l.02-.003 1.788-.357c.194.347.503.615.873.76-.258.24-.58.4-.928.459a1.55 1.55 0 01-.274.022zm-4.23-13H41.6v10.4h-1.733zM31.2 35.725l6.933 1.388v10.374L31.2 46.098zm-4.333.6l-1.85-3.39h3.699zm-11.75-8.653a12.432 12.432 0 01.933-6.288 14.088 14.088 0 001.126-6.306l-.147-3a9.857 9.857 0 014.633-8.856 9.849 9.849 0 019.988-.25 9.856 9.856 0 015.07 8.611c0 .153-.007.32-.016.495l-.147 2.998a14.268 14.268 0 001.126 6.306 12.43 12.43 0 011.014 4.905c-.003.464-.03.927-.082 1.388l-.098.893a6.06 6.06 0 00-3.044-.824h-3.926a.351.351 0 01-.347-.347v-3.42a8.673 8.673 0 004.333-7.504v-4.335a.867.867 0 00-.744-.858 20.718 20.718 0 01-10.342-4.6l-.492-.41a.866.866 0 00-1.33.279l-.336.671a10.921 10.921 0 01-3.703 4.197.867.867 0 00-.386.721v4.335a8.673 8.673 0 004.333 7.504v3.42a.351.351 0 01-.346.347h-3.935a6.104 6.104 0 00-3.035.82zm3.097 8.405a.864.864 0 01.055-.067l-.052.069zM7.736 40.733h3.53v7.491a2.053 2.053 0 01-1.999 2.05c-.017 0-.033.003-.05.003a2.049 2.049 0 01-2.045-2.21zm3.53-3.466V39H7.8v-1.733zM2.214 34.37a.862.862 0 01-.48-.776V31.15a.166.166 0 01.083-.147.166.166 0 01.168-.008l.865.432c.844.42 1.773.64 2.716.64h3.109a.868.868 0 00.776-1.254l-.794-1.586a.818.818 0 01.534-1.161.823.823 0 01.96.49l1.127 2.812v4.166H5.565a4.363 4.363 0 01-1.94-.457zm41.228-.144l6.826-1.137v.866l-4.077.816-3.81.761h-.604a2.195 2.195 0 011.664-1.306zm-4.355 1.306l-3.944-.788-3.943-.789v-.867l6.826 1.138a2.194 2.194 0 011.666 1.306zm-.482-4.726c.393.396.7.868.9 1.388l.373.94a3.95 3.95 0 00-1.558-.617l-6.786-1.13 1.05-1.921h2.894a4.301 4.301 0 013.11 1.324zm-18.67-14.34v-3.88a12.66 12.66 0 003.75-4.294 22.45 22.45 0 0010.116 4.58v3.594a6.941 6.941 0 01-6.933 6.933 6.941 6.941 0 01-6.934-6.933zm3.095 12.82a2.082 2.082 0 001.236-1.9v-2.653a8.649 8.649 0 005.193 0v2.653a2.082 2.082 0 001.237 1.9L29.653 31.2H24.07zm27.962 1.925l-7.836 1.306a3.943 3.943 0 00-1.451.55l-.597-1.508a5.773 5.773 0 00-.995-1.66l.226-2.05c.058-.522.089-1.047.092-1.572a14.144 14.144 0 00-1.154-5.584 12.518 12.518 0 01-.988-5.536l.147-3c.01-.19.019-.385.019-.579C38.444 5.185 33.26.005 26.867 0a11.585 11.585 0 00-11.57 12.158l.148 2.99c.008.224.016.435.016.643a12.355 12.355 0 01-1.004 4.902 14.162 14.162 0 00-1.062 7.163l.226 2.021a5.883 5.883 0 00-.687.993l-1.183-2.958a2.553 2.553 0 10-4.653 2.09l.166.331H5.561a4.355 4.355 0 01-1.938-.457l-.864-.432A1.907 1.907 0 000 31.149v2.446a2.586 2.586 0 001.437 2.326l1.41.705a6.09 6.09 0 002.714.64h.506v2.567l-.623 8.094a3.784 3.784 0 003.964 4.068 3.488 3.488 0 003.442-2.287l3.956-7.355A7.58 7.58 0 0018.2 45.37V52h1.733v-6.933a.867.867 0 00-.2-.555 5.909 5.909 0 01.755-8.313l-1.11-1.331a7.605 7.605 0 00-1.076 1.099.89.89 0 00-.09.108l-.002-.001-.015.027-.011.019a7.589 7.589 0 00-1.127 2.106L13 45.771V35.24l1.232-3.066c.206-.523.516-1 .912-1.399a4.386 4.386 0 013.108-1.31h2.9l4.954 9.082a.867.867 0 001.522 0l1.839-3.371V46.8c0 .413.291.769.696.85l3.637.727V52h1.733v-3.276l3.316.662c.022.004.122.014.151.014h1.64l.166.31a3.511 3.511 0 003.861 2.243 3.513 3.513 0 002.713-2.263l2.305-.384a1.726 1.726 0 001.444-1.621l.174-.035A.867.867 0 0052 46.8V32.067a.867.867 0 00-1.01-.855z"/></svg>