<svg xmlns="http://www.w3.org/2000/svg" width="418" height="288"><defs><clipPath id="mzsgc"><path fill="#fff" d="M55.385 6H409v234.45L371.553 276H9V47.27z"/></clipPath><filter id="mzsga" width="442" height="315" x="-12" y="-15" filterUnits="userSpaceOnUse"><feOffset dy="3" in="SourceGraphic" result="FeOffset1656Out"/><feGaussianBlur in="FeOffset1656Out" result="FeGaussianBlur1657Out" stdDeviation="4.4 4.4"/></filter><mask id="mzsgb" width="2" height="2" x="-1" y="-1"><path fill="#fff" d="M9 6h400v270H9z"/><path d="M55.385 6H409v234.45L371.553 276H9V47.27z"/></mask></defs><g opacity=".95"><g filter="url(#mzsga)"><path fill="none" d="M55.385 6H409v234.45L371.553 276H9V47.27z" mask="url(&quot;#mzsgb&quot;)"/><path fill="#2c2e30" fill-opacity=".25" d="M55.385 6H409v234.45L371.553 276H9V47.27z"/></g><path fill="#fff" d="M55.385 6H409v234.45L371.553 276H9V47.27z"/><path fill="none" stroke="#e7eaee" stroke-miterlimit="20" stroke-width="2" d="M55.385 6v0H409v234.45L371.553 276v0H9v0V47.27v0z" clip-path="url(&quot;#mzsgc&quot;)"/></g></svg>