<svg width="26" height="26" xmlns="http://www.w3.org/2000/svg"><defs><linearGradient x1="50%" y1="0%" x2="50%" y2="100%" id="linearGradient-1"><stop stop-color="#F90" offset="0%"/><stop stop-color="#FF6000" offset="100%"/></linearGradient></defs><g id="Page-1" stroke="none" stroke-width="1" fill="none" fill-rule="evenodd"><g id="Mobile" transform="translate(-275 -9)"><g id="button_call" transform="translate(275 9)"><path id="Rectangle-Copy-8" fill="url(#linearGradient-1)" d="M4.631 0H26v20.784L20.616 26 0 25.786V6.046z"/><g id="call" transform="matrix(-1 0 0 1 21 5)" fill="#FFF" fill-rule="nonzero"><path d="M14.716 10.502c-.98 0-1.941-.153-2.853-.454-.454-.155-.971-.035-1.268.267l-1.799 1.358C6.71 10.56 5.424 9.275 4.326 7.204l1.318-1.752c.343-.342.465-.842.318-1.31a9.098 9.098 0 01-.456-2.858C5.506.576 4.93 0 4.222 0H1.284C.576 0 0 .576 0 1.284 0 9.398 6.602 16 14.716 16c.708 0 1.284-.576 1.284-1.284v-2.93c0-.708-.576-1.284-1.284-1.284zm.395 4.214a.395.395 0 01-.395.395C7.092 15.111.89 8.908.89 1.284c0-.218.177-.395.395-.395h2.938c.218 0 .395.177.395.395 0 1.075.169 2.13.5 3.13.045.147.008.3-.141.455L3.448 6.893a.445.445 0 00-.042.469c1.247 2.45 2.762 3.966 5.23 5.23a.44.44 0 00.471-.04l2.07-1.568a.392.392 0 01.403-.094 9.98 9.98 0 003.136.501c.218 0 .395.177.395.395v2.93z" id="Shape"/></g></g></g></g></svg>