<svg width="11" height="8" xmlns="http://www.w3.org/2000/svg"><g id="Page-1" stroke="none" stroke-width="1" fill="none" fill-rule="evenodd"><g id="Desktop-HD" transform="translate(-502 -707)" fill="#FFF"><g id="Group-7" transform="translate(56 67)"><path d="M454.653 640.39l-1.375 1.334-3.153 3.057-1.778-1.724a1.393 1.393 0 00-.972-.39c-.76 0-1.375.596-1.375 1.333 0 .368.154.701.403.943l2.75 2.666c.249.242.592.391.972.391s.723-.15.972-.39l4.125-4 1.375-1.334a1.31 1.31 0 00.403-.943c0-.736-.615-1.333-1.375-1.333-.38 0-.723.15-.972.39z" id="Icon"/></g></g></g></svg>