<svg width="20" height="16" xmlns="http://www.w3.org/2000/svg"><g id="Page-1" stroke="none" stroke-width="1" fill="none" fill-rule="evenodd"><g id="fullhd" transform="translate(-1022 -8795)" fill="#5485BC" fill-rule="nonzero"><g id="footer" transform="translate(0 8620)"><g id="mail" transform="translate(1022 175)"><path d="M18.242 0H1.758c-.27 0-.524.067-.753.176L9.96 9.132l2.007-1.929 7.03-7.027A1.737 1.737 0 0018.242 0zm1.582 1.005l-6.613 6.612 6.613 6.613c.11-.23.176-.483.176-.753V1.757c0-.27-.066-.523-.176-.752zm-19.648 0A1.73 1.73 0 000 1.758v11.719c0 .27.066.523.176.752l6.613-6.612L.176 1.005z" id="Path"/><path d="M12.383 8.446l-2.008 1.93a.584.584 0 01-.828 0l-1.93-1.93-6.613 6.612c.23.11.483.176.754.176h16.484c.27 0 .524-.066.753-.176l-6.612-6.612z" id="Path"/></g></g></g></g></svg>