<svg width="20" height="20" xmlns="http://www.w3.org/2000/svg"><g id="Page-1" stroke="none" stroke-width="1" fill="none" fill-rule="evenodd"><g id="fullhd" transform="translate(-1022 -8759)" fill="#5485BC" fill-rule="nonzero"><g id="footer" transform="translate(0 8620)"><g id="fax" transform="translate(1022 139)"><path d="M7.852.497v7.198h10.43V.497A.497.497 0 0017.784 0H8.348a.497.497 0 00-.496.497zm2.495 1.294h2.745a.586.586 0 010 1.172h-2.745a.586.586 0 010-1.172zm0 2.935h5.439a.586.586 0 010 1.172h-5.439a.586.586 0 010-1.172zm8.091 4.141H7.694c-.863 0-1.562.7-1.562 1.563v8.008c0 .862.7 1.562 1.562 1.562h10.742C19.3 20 20 19.3 20 18.437V10.43c0-.863-.7-1.563-1.563-1.563zm-8.106 8.496h-.781a.586.586 0 010-1.172h.781a.586.586 0 010 1.172zm0-2.343h-.781a.586.586 0 010-1.172h.781a.586.586 0 010 1.172zm0-2.344h-.781a.586.586 0 010-1.172h.781a.586.586 0 010 1.172zm3.125 4.687h-.781a.586.586 0 010-1.172h.781a.586.586 0 010 1.172zm0-2.343h-.781a.586.586 0 010-1.172h.781a.586.586 0 010 1.172zm0-2.344h-.781a.586.586 0 010-1.172h.781a.586.586 0 010 1.172zm3.125 4.687h-.781a.586.586 0 010-1.172h.781a.586.586 0 010 1.172zm0-2.343h-.781a.586.586 0 010-1.172h.781a.586.586 0 010 1.172zm0-2.344h-.781a.586.586 0 010-1.172h.781a.586.586 0 010 1.172z" id="Shape"/><path d="M3.398 8.867H1.562C.7 8.867 0 9.567 0 10.43v8.008C0 19.3.7 20 1.563 20h1.835c.863 0 1.563-.7 1.563-1.563V10.43c0-.863-.7-1.563-1.563-1.563z" id="Path"/></g></g></g></g></svg>