<svg width="14" height="20" xmlns="http://www.w3.org/2000/svg"><g id="Page-1" stroke="none" stroke-width="1" fill="none" fill-rule="evenodd"><g id="fullhd" transform="translate(-1025 -8728)" fill="#5485BC" fill-rule="nonzero"><g id="footer" transform="translate(0 8620)"><g id="placeholder-(1)" transform="translate(1025 108)"><path d="M11.978 2.043A6.928 6.928 0 007.048 0a6.927 6.927 0 00-4.932 2.043c-2.437 2.437-2.74 7.022-.656 9.8l5.587 8.069 5.579-8.057c2.093-2.79 1.79-7.375-.648-9.812zM7.112 9.455a2.549 2.549 0 01-2.546-2.546 2.549 2.549 0 012.546-2.545 2.549 2.549 0 012.545 2.545 2.549 2.549 0 01-2.545 2.546z" id="Shape"/></g></g></g></g></svg>