<svg width="20" height="20" xmlns="http://www.w3.org/2000/svg"><g id="Page-1" stroke="none" stroke-width="1" fill="none" fill-rule="evenodd"><g id="fullhd" transform="translate(-1022 -8823)" fill="#5485BC" fill-rule="nonzero"><g id="footer" transform="translate(0 8620)"><g id="clock" transform="translate(1022 203)"><path d="M10 20C4.486 20 0 15.514 0 10S4.486 0 10 0s10 4.486 10 10-4.486 10-10 10zm0-18.75c-4.825 0-8.75 3.925-8.75 8.75s3.925 8.75 8.75 8.75 8.75-3.925 8.75-8.75S14.825 1.25 10 1.25z" id="Shape"/><path d="M14.375 15.417a.62.62 0 01-.442-.184l-4.375-4.375a.625.625 0 01-.183-.441V4.583a.625.625 0 011.25 0v5.574l4.192 4.192a.625.625 0 01-.442 1.068z" id="Path"/></g></g></g></g></svg>