<svg xmlns="http://www.w3.org/2000/svg" width="49" height="52"><path fill="#ffe8d2" d="M35.407 51.237H3.674A2.874 2.874 0 01.8 48.363V3.633A2.874 2.874 0 013.674.76h31.733a2.874 2.874 0 012.874 2.874v44.729a2.874 2.874 0 01-2.874 2.874z"/><path fill="#f7d4ad" d="M35.407.76h-2.65v13.073c0 17.355-14.07 31.424-31.428 31.424H.8v3.106a2.874 2.874 0 002.874 2.873h31.733a2.874 2.874 0 002.874-2.873V3.633A2.874 2.874 0 0035.407.76z"/><path fill="#b8b6ff" d="M23.34 21.838h-7.623a1.876 1.876 0 01-1.843-2.229l.3-1.564a3.353 3.353 0 012.154-2.526l3.222-1.169 3.197 1.16a3.35 3.35 0 011.653 1.301c.251.377.426.805.508 1.265l.279 1.555a1.876 1.876 0 01-1.847 2.207z"/><path fill="#ecbd83" d="M21.314 14.995l-1.802 1.574-1.802-1.574V12.58h3.604z"/><path fill="#f7d4ad" d="M22.376 8.316v2.047c0 1.606-1.314 2.958-2.92 2.927a2.863 2.863 0 01-2.806-2.863v-2.11c0-1.582 1.282-2.407 2.863-2.407s2.863.825 2.863 2.406z"/><path fill="#a09eef" d="M16.534 19.074v2.764h-.817a1.876 1.876 0 01-1.843-2.229l.3-1.564a3.34 3.34 0 01.507-1.235 2.309 2.309 0 011.853 2.264zm6.804 2.762h-.788v-2.764c0-1.117.794-2.05 1.849-2.262.25.376.425.805.508 1.264l.278 1.556a1.876 1.876 0 01-1.847 2.206z"/><path fill="#6e4848" d="M22.376 8.173c-.107.082-.187.141-.187.141a5.16 5.16 0 01-.659.32c-1.074.429-2.123.445-2.631.09 0 0-.53-.396-.729-.649-.198-.253-.83-.317-1.354.24a.473.473 0 01-.166.118v-.119a2.864 2.864 0 015.726-.141z"/><path fill="#ff445c" d="M41.131 35.127l-2.598-2.035a.408.408 0 00-.504 0l-2.599 2.035a.408.408 0 01-.66-.322V20.218c0-.225.183-.408.408-.408h6.205c.226 0 .409.183.409.408v14.587c0 .34-.393.532-.66.322z"/><path fill="#ff8b59" d="M48.35 14.574c0 1.282-1.427 2.271-1.89 3.386-.479 1.155-.187 2.86-1.058 3.73-.871.871-2.575.58-3.731 1.058-1.115.463-2.104 1.89-3.386 1.89s-2.271-1.427-3.386-1.89c-1.156-.479-2.86-.187-3.73-1.057-.872-.871-.58-2.576-1.06-3.731-.462-1.115-1.889-2.104-1.889-3.386s1.427-2.27 1.89-3.386c.479-1.155.187-2.86 1.058-3.73.871-.871 2.576-.58 3.731-1.058 1.115-.463 2.104-1.89 3.386-1.89s2.271 1.427 3.386 1.89c1.156.479 2.86.187 3.731 1.057.871.871.58 2.576 1.058 3.731.463 1.115 1.89 2.104 1.89 3.386z"/><path fill="#fee07d" d="M38.455 9.609l1.614 2.41c.026.04.066.068.112.081l2.79.79a.2.2 0 01.104.317l-1.794 2.279a.2.2 0 00-.043.131l.112 2.898a.2.2 0 01-.27.196l-2.722-1.001a.2.2 0 00-.138 0l-2.722 1.001a.2.2 0 01-.27-.196l.111-2.898a.2.2 0 00-.042-.131l-1.794-2.28a.2.2 0 01.103-.316l2.79-.79a.201.201 0 00.113-.081l1.613-2.41a.2.2 0 01.333 0z"/><path d="M19.52 14.051a3.51 3.51 0 001.043-.158v1.227a1.978 1.978 0 01-2.081 0v-1.224a3.554 3.554 0 001.038.155zm-2.1-5.733c0-1.16.943-2.105 2.101-2.105.978 0 1.8.674 2.033 1.581a4.445 4.445 0 01-.301.135c-.937.375-1.693.325-1.91.174a.764.764 0 00-.875 1.25c.373.26.878.39 1.454.39.524 0 1.106-.108 1.7-.324v.95a2.21 2.21 0 01-.66 1.566 2.129 2.129 0 01-.706.462 1.963 1.963 0 01-.776.14 2.113 2.113 0 01-2.06-2.105zm6.76 9.889l.278 1.555a1.114 1.114 0 01-1.099 1.31h-7.63a1.113 1.113 0 01-1.095-1.323l.299-1.564a2.612 2.612 0 011.667-1.954l.576-.208a.78.78 0 00.045.043 3.497 3.497 0 002.306.861c.824 0 1.648-.286 2.305-.86a.753.753 0 00.066-.065l.608.22a2.606 2.606 0 011.674 1.985zm-7.222-3.727l-.88.319a4.143 4.143 0 00-2.642 3.1l-.298 1.563a2.627 2.627 0 00.556 2.176 2.63 2.63 0 002.034.958h7.623c.783 0 1.521-.345 2.024-.945a2.63 2.63 0 00.573-2.157l-.278-1.555a4.134 4.134 0 00-2.652-3.15l-.932-.337v-1.374a.757.757 0 00-.01-.113 3.738 3.738 0 001.07-2.603V8.314a3.629 3.629 0 00-3.624-3.624 3.629 3.629 0 00-3.625 3.624v2.112c0 .993.41 1.9 1.068 2.558a.755.755 0 00-.007.094zM7.542 35.643h23.722a.762.762 0 100-1.523H7.542a.762.762 0 100 1.523zm0 4.1h23.722a.762.762 0 100-1.523H7.542a.762.762 0 100 1.523zm0 4.11h23.722a.762.762 0 100-1.523H7.542a.762.762 0 100 1.523zm0 4.11h23.722a.762.762 0 100-1.523H7.542a.762.762 0 100 1.523zM6.78 26.662c0 .42.34.761.762.761h23.722a.762.762 0 100-1.523H7.542a.762.762 0 00-.762.762zm.762 4.871h23.722a.762.762 0 100-1.523H7.542a.762.762 0 100 1.523zM4.735 35.64a.765.765 0 100-1.53.765.765 0 000 1.53zm0-8.21a.765.765 0 100-1.53.765.765 0 000 1.53zm0 4.11a.765.765 0 100-1.53.765.765 0 000 1.529zm0 8.21a.765.765 0 100-1.53.765.765 0 000 1.53zm0 4.11a.765.765 0 100-1.53.765.765 0 000 1.53zm0 4.1a.765.765 0 100-1.53.765.765 0 000 1.53z"/><path d="M45.752 17.671c-.23.557-.306 1.167-.379 1.757-.088.715-.172 1.391-.51 1.73-.338.338-1.014.421-1.73.51-.59.072-1.2.148-1.757.379-.534.221-1.003.591-1.456.95-.577.455-1.122.886-1.637.886-.516 0-1.06-.43-1.638-.886-.453-.359-.922-.729-1.456-.95-.037-.016-.074-.028-.111-.042a.753.753 0 00-.08-.03c-.504-.176-1.043-.243-1.566-.307-.715-.089-1.391-.172-1.73-.51-.338-.339-.421-1.015-.51-1.73-.073-.59-.148-1.2-.38-1.757-.22-.534-.59-1.003-.95-1.456-.455-.577-.885-1.121-.885-1.637s.43-1.06.886-1.637c.358-.453.729-.922.95-1.456.23-.556.306-1.167.38-1.757.088-.715.171-1.391.51-1.73.338-.337 1.014-.42 1.73-.51.59-.072 1.2-.148 1.756-.379.534-.22 1.003-.591 1.456-.95.576-.454 1.12-.884 1.634-.885h.006c.515.001 1.06.43 1.635.885.453.359.922.73 1.456.95.557.231 1.167.307 1.757.38.716.088 1.392.172 1.73.51.338.338.422 1.014.51 1.73.073.59.148 1.2.38 1.756.22.534.591 1.003.95 1.456.455.577.885 1.121.885 1.637s-.43 1.06-.886 1.637c-.358.453-.728.922-.95 1.456zm1.407-6.77c-.151-.365-.21-.848-.274-1.36-.11-.895-.236-1.91-.945-2.62-.709-.708-1.724-.834-2.62-.944-.512-.064-.995-.123-1.36-.275-.34-.14-.707-.43-1.096-.738-.535-.423-1.124-.887-1.82-1.098v-.23A3.64 3.64 0 0035.408 0H3.676A3.64 3.64 0 00.04 3.635v2.94a.762.762 0 101.523 0v-2.94c0-1.164.948-2.112 2.113-2.112h31.732c1.165 0 2.113.948 2.113 2.112v.231c-.696.21-1.285.675-1.82 1.098-.39.307-.757.598-1.095.738-.366.152-.849.211-1.36.275-.897.11-1.912.236-2.62.944-.71.71-.835 1.725-.946 2.62-.063.512-.123.995-.274 1.36-.14.34-.431.707-.739 1.096-.569.72-1.214 1.536-1.214 2.581s.645 1.861 1.214 2.582c.308.389.598.756.739 1.095.151.365.21.848.274 1.36.11.896.236 1.911.945 2.62.709.708 1.724.834 2.62.945.267.033.526.065.765.11v11.514c0 .45.252.854.658 1.051a1.16 1.16 0 001.233-.13l1.62-1.268v13.908a2.114 2.114 0 01-2.113 2.112H3.676a2.114 2.114 0 01-2.113-2.112V9.93a.762.762 0 10-1.523 0v38.435A3.64 3.64 0 003.676 52h31.732a3.64 3.64 0 003.636-3.635V34.457l1.62 1.267a1.165 1.165 0 001.234.131c.405-.197.657-.6.657-1.051v-8.5a.762.762 0 10-1.523 0v7.774l-2.025-1.585a1.172 1.172 0 00-1.446-.003l-2.027 1.587V24.061l.167.131c.72.57 1.536 1.214 2.581 1.214s1.862-.645 2.582-1.214c.39-.307.757-.598 1.095-.738.366-.151.849-.211 1.36-.274.897-.111 1.912-.237 2.621-.945.709-.709.834-1.724.945-2.62.063-.512.123-.995.274-1.36.14-.339.431-.707.739-1.096.569-.72 1.214-1.536 1.214-2.58 0-1.046-.645-1.862-1.214-2.582-.308-.39-.598-.757-.739-1.095z"/><path d="M40.673 15.017a.964.964 0 00-.205.631l.079 2.06-1.934-.711a.963.963 0 00-.664 0l-1.935.712.08-2.061a.965.965 0 00-.206-.632l-1.274-1.62 1.983-.561a.963.963 0 00.537-.39l1.147-1.714 1.146 1.713c.127.19.318.329.538.391l1.983.561zm2.498-2.858l-2.592-.734-1.499-2.238a.96.96 0 00-1.599 0l-1.498 2.238-2.593.734a.96.96 0 00-.494 1.52l1.666 2.117-.103 2.691a.96.96 0 001.293.94l2.529-.93 2.528.93a.96.96 0 001.293-.94L42 15.798l1.666-2.118a.96.96 0 00-.494-1.52z"/></svg>