<svg xmlns="http://www.w3.org/2000/svg" width="52" height="52"><path fill="#49c3e0" d="M8.593 30.48H2.067c-.722 0-1.307.585-1.307 1.307v19.4H9.9v-19.4c0-.722-.585-1.307-1.307-1.307z"/><path fill="#00a5c6" d="M5.12 30.48H2.067c-.722 0-1.307.585-1.307 1.307v19.4h3.053v-19.4c0-.722.585-1.307 1.307-1.307z"/><path fill="#3ac7b4" d="M22.412 25.36h-6.525c-.722 0-1.307.585-1.307 1.307v24.518h9.14V26.667c0-.722-.586-1.307-1.308-1.307z"/><path fill="#00ad94" d="M18.94 25.36h-3.053c-.722 0-1.307.585-1.307 1.307v24.518h3.053V26.667c0-.722.585-1.307 1.306-1.307z"/><path fill="#ffcd38" d="M36.223 20.24h-6.526c-.722 0-1.307.585-1.307 1.307v29.636h9.14V21.547c0-.722-.585-1.307-1.307-1.307z"/><path fill="#e7b835" d="M32.75 20.24h-3.053c-.722 0-1.307.585-1.307 1.307v29.636h3.053V21.547c0-.722.585-1.307 1.307-1.307z"/><path fill="#ff8c57" d="M50.032 15.12h-6.525c-.722 0-1.307.585-1.307 1.307V51.18h9.14V16.427c0-.722-.586-1.307-1.308-1.307z"/><path fill="#ec6a34" d="M46.56 15.12h-3.053c-.722 0-1.307.585-1.307 1.307V51.18h3.053V16.427c0-.722.585-1.307 1.306-1.307z"/><path fill="#da5b65" d="M48.99 1.103L40.732.811a.83.83 0 00-.711 1.302l1.331 1.917C36.87 6.717 22.52 14.27 2.97 14.27v5.484c13.248 0 24.191-3.281 31.04-6.034 5.009-2.013 8.601-4.028 10.48-5.175l1.18 1.7a.83.83 0 001.469-.211l2.608-7.84a.83.83 0 00-.758-1.09z"/><path d="M1.526 31.78c0-.3.244-.543.544-.543h6.526c.3 0 .543.244.543.543v18.636H1.526zm8.377 20.163a.763.763 0 00.763-.763v-19.4c0-1.141-.928-2.07-2.07-2.07H2.07c-1.14 0-2.07.929-2.07 2.07v19.4c0 .422.342.763.763.763zM22.95 26.67v23.755h-7.614V26.67c0-.3.244-.544.544-.544h6.526c.3 0 .543.244.543.544zm-7.07-2.07c-1.141 0-2.07.929-2.07 2.07v24.518c0 .422.341.764.763.764h9.14a.763.763 0 00.763-.764V26.67c0-1.141-.929-2.07-2.07-2.07zm13.266 25.813V21.55c0-.3.244-.544.544-.544h6.526c.3 0 .543.244.543.544v28.863zm9.14-28.863c0-1.141-.928-2.07-2.07-2.07H29.69c-1.141 0-2.07.929-2.07 2.07v29.636c0 .422.342.763.763.763h9.14a.763.763 0 00.763-.763zm4.679-5.12c0-.3.244-.544.544-.544h6.528c.3 0 .544.244.544.544v33.99h-7.616zm-.762 35.517h9.14a.763.763 0 00.763-.763V16.43c0-1.141-.929-2.07-2.07-2.07H43.51c-1.141 0-2.07.929-2.07 2.07v34.754c0 .422.341.763.763.763zm2.844-41.263c.346.498.934.754 1.535.667a1.585 1.585 0 001.284-1.073l2.609-7.84c.16-.48.086-.995-.204-1.411A1.579 1.579 0 0049.02.344L40.763.05a1.581 1.581 0 00-1.455.829 1.584 1.584 0 00.09 1.671l.863 1.242c-4.462 2.574-14.979 7.771-29.308 9.293a.763.763 0 00.16 1.518c15.45-1.64 26.572-7.48 30.636-9.916a.77.77 0 00.235-1.09L40.652 1.68a.066.066 0 01.056-.105l8.257.293a.067.067 0 01.061.087l-2.608 7.84a.067.067 0 01-.118.017l-1.18-1.7a.763.763 0 00-1.025-.217c-1.78 1.088-4.758 2.749-8.836 4.485a.763.763 0 10.598 1.405c3.724-1.586 6.555-3.114 8.416-4.216z"/><path d="M8.03 14.864a.763.763 0 10-.1-1.522 75.878 75.878 0 01-4.957.164.763.763 0 00-.763.763v5.484c0 .421.341.763.763.763 12.637 0 23.181-2.988 29.802-5.495a.763.763 0 10-.54-1.427c-6.368 2.41-16.431 5.275-28.499 5.392v-3.957c1.42-.015 2.862-.07 4.294-.165z"/></svg>