<svg xmlns="http://www.w3.org/2000/svg" width="52" height="52"><path fill="#fb636f" d="M25.999 38.52h4.309v12.722l-4.309-2.463-4.309 2.463V38.52z"/><path fill="#93d87b" d="M.76.76h50.477v35.703H.76z"/><path fill="#67c846" d="M49.19.76h2.052v35.703H49.19zM26.004 27.23c-5.092 0-9.234 4.142-9.234 9.234h18.467c0-5.092-4.142-9.234-9.233-9.234z"/><path fill="#eff3f5" d="M46.52 5.25v27.495H4.251V5.25z"/><path fill="#c9e2e7" d="M17.73 32.36h16.54c-1.514-3.038-4.652-5.13-8.27-5.13-3.618 0-6.756 2.092-8.27 5.13z"/><path fill="#695e66" d="M31.645 10.71v3.488c0 1.473-2.526 2.668-5.642 2.668-3.117 0-5.643-1.195-5.643-2.668V10.71z"/><path fill="#786e79" d="M25.995 13.275l-8.315-2.94 8.315-2.805 8.315 2.804z"/><path fill="#fa4954" d="M21.69 38.52v6.112a9.176 9.176 0 004.309 1.07 9.176 9.176 0 004.309-1.07V38.52h-4.309z"/><path fill="#fce25c" d="M26.002 43.643a7.182 7.182 0 100-14.363 7.182 7.182 0 000 14.363z"/><path fill="#fbd307" d="M30.34 30.74A7.182 7.182 0 0120.28 40.8a7.182 7.182 0 1010.06-10.06z"/><path fill="#fce25c" d="M42.879 10.658a1.539 1.539 0 100-3.078 1.539 1.539 0 000 3.078zm-33.76 0a1.539 1.539 0 100-3.078 1.539 1.539 0 000 3.078z"/><path d="M26 30.045c3.54 0 6.42 2.88 6.42 6.42s-2.88 6.42-6.42 6.42-6.42-2.88-6.42-6.42 2.88-6.42 6.42-6.42zm26-6.898V.762c0-.42-.34-.762-.762-.762H.762A.762.762 0 000 .762v35.703c0 .42.341.761.762.761h17.332a7.936 7.936 0 002.835 5.348v8.664a.762.762 0 001.14.662L26 49.653l3.931 2.247a.761.761 0 001.14-.662v-2.282a.762.762 0 10-1.524 0v.97l-3.17-1.811a.762.762 0 00-.755 0l-3.17 1.81V43.57a7.892 7.892 0 003.548.839 7.893 7.893 0 003.547-.84v1.828a.762.762 0 101.524 0v-2.822a7.936 7.936 0 002.835-5.348h17.332a.76.76 0 00.762-.761v-9.76a.762.762 0 10-1.523 0v8.998H33.906a7.877 7.877 0 00-.703-2.58h13.931a.762.762 0 00.762-.762V4.866a.761.761 0 00-.762-.762H4.865a.762.762 0 00-.761.762v11.457a.762.762 0 101.523 0V5.627h40.746V31.6h-14.1A7.932 7.932 0 0026 28.521a7.932 7.932 0 00-6.272 3.078h-14.1V19.893a.762.762 0 10-1.524 0v12.468c0 .42.34.762.761.762h13.931a7.88 7.88 0 00-.702 2.58H1.524V1.523h48.953v21.624a.762.762 0 101.523 0z"/><path d="M18.822 18.77a.762.762 0 100 1.523h14.363a.762.762 0 100-1.523zm-5.892 3.842c0 .42.34.761.762.761h24.623a.762.762 0 100-1.523H13.692a.761.761 0 00-.762.762zm.762 3.431h24.623a.762.762 0 100-1.523H13.692a.762.762 0 100 1.523zm22.418 3.339c0 .42.34.761.762.761h7.181a.762.762 0 100-1.523h-7.181a.762.762 0 00-.762.762zm-28.93 0c0 .42.34.761.762.761h7.181a.762.762 0 100-1.523H7.942a.762.762 0 00-.762.762zM30.876 14.2c0 .777-1.901 1.906-4.88 1.906-2.977 0-4.878-1.129-4.878-1.906v-1.84l4.625 1.636a.762.762 0 00.508 0l4.625-1.636zm-4.874-5.864l5.985 2.017-5.985 2.116-5.986-2.116zm9.072 1.994a.762.762 0 00-.519-.716L26.24 6.81a.762.762 0 00-.487 0l-8.315 2.804a.762.762 0 00-.01 1.44l2.164.766v2.38c0 1.955 2.754 3.43 6.405 3.43 3.65 0 6.404-1.475 6.404-3.43v-2.38l2.165-.766a.762.762 0 00.508-.724zM27.03 38.784h-3.078a.762.762 0 100 1.524h1.29v.264a.762.762 0 101.523 0v-.264h.265a1.79 1.79 0 001.787-1.788v-1.026a1.79 1.79 0 00-1.787-1.787h-2.052a.265.265 0 01-.264-.265v-1.026c0-.145.118-.264.264-.264h3.078a.762.762 0 100-1.523h-1.29v-.367a.762.762 0 10-1.524 0v.367h-.264a1.79 1.79 0 00-1.788 1.787v1.026a1.79 1.79 0 001.788 1.788h2.052c.145 0 .264.118.264.264v1.026a.265.265 0 01-.264.264zM42.103 9.126a.783.783 0 111.567.001.783.783 0 01-1.567-.001zm3.078-.005a2.303 2.303 0 00-2.3-2.301 2.303 2.303 0 00-2.301 2.3 2.302 2.302 0 002.3 2.301 2.302 2.302 0 002.301-2.3zm-36.055.787a.783.783 0 11.001-1.566.783.783 0 01-.001 1.566zM9.12 6.82a2.303 2.303 0 00-2.301 2.3 2.302 2.302 0 002.3 2.301 2.302 2.302 0 002.301-2.3 2.303 2.303 0 00-2.3-2.301z"/></svg>