<svg xmlns="http://www.w3.org/2000/svg" width="51" height="52"><path fill="#fca" d="M4.204 13.75l.567 4.62-2.178.268a1.871 1.871 0 00.456 3.714l2.178-.267.232 1.891a8.21 8.21 0 0016.296-2L20.5 11.75z"/><path fill="#f2a077" d="M17.929 12.066l1.255 10.225a8.21 8.21 0 01-5.874 8.889 8.21 8.21 0 008.446-9.205L20.501 11.75z"/><path fill="#ce3a4c" d="M15.624 26.747a2.597 2.597 0 01-2.894-2.26l-.087-.709a.393.393 0 01.342-.438l4.375-.537a.393.393 0 01.438.342l.087.708a2.597 2.597 0 01-2.261 2.894z"/><path fill="#475d6d" d="M20.616 12.657l-14.82 1.82c-.816.1-1.395.842-1.295 1.656l.275 2.24-2.177.267c-.17.02-.33.063-.481.125L.86 8.52a2.644 2.644 0 012.302-2.946l11.143-1.368c2.541-.312 4.877-1.492 5.88-3.445 5.937 2.36 4.39 11.411.431 11.897z"/><path fill="#2c3f4f" d="M20.178.76a5.088 5.088 0 01-.93 1.264c3.954 3.22 2.344 10.512-1.198 10.947l2.56-.314c3.958-.486 5.505-9.536-.432-11.897z"/><path fill="#fca" d="M46.174 33.8l-.568 4.62 2.178.268a1.871 1.871 0 01-.456 3.714l-2.178-.267-.232 1.891a8.21 8.21 0 01-16.296-2L29.878 31.8z"/><path fill="#f2a077" d="M47.777 38.688l-2.178-.267.567-4.62L29.87 31.8l13.882 1.704-.568 4.62-.456 3.715-.232 1.89c-.525 4.28-3.768 7.443-7.382 7.336.213.044.429.082.648.109a8.21 8.21 0 009.149-7.148l.232-1.89 2.178.267a1.871 1.871 0 00.456-3.715z"/><path fill="#ce3a4c" d="M34.75 46.797a2.597 2.597 0 002.895-2.26l.086-.709a.393.393 0 00-.342-.438l-4.374-.537a.393.393 0 00-.438.342l-.087.708a2.597 2.597 0 002.26 2.894z"/><path fill="#be6351" d="M47.213 25.62l-10.467-1.285a2.184 2.184 0 01-1.505-.893 5.86 5.86 0 00-4.349-2.427c-3.01-.219-5.731 1.933-6.215 4.913a5.874 5.874 0 005.081 6.776l14.822 1.82c.814.1 1.393.842 1.293 1.656l-.274 2.24 2.177.267c.17.02.33.063.481.126l1.258-10.246a2.644 2.644 0 00-2.302-2.947z"/><path fill="#aa473a" d="M47.214 25.623l-1.894-.233a2.644 2.644 0 012.302 2.947l-1.25 10.18 1.405.172c.17.021.33.064.481.126l1.258-10.246a2.644 2.644 0 00-2.302-2.946z"/><path d="M11.693 18.87a2.227 2.227 0 00-3.122.384.762.762 0 001.2.938.701.701 0 01.984-.121.762.762 0 00.938-1.2zm7.952.11a.762.762 0 00-.132-1.07 2.227 2.227 0 00-3.121.384.762.762 0 001.2.938.701.701 0 01.983-.12c.332.258.81.2 1.07-.132zm-2.576 4.626l.042.342a1.836 1.836 0 01-1.594 2.045 1.833 1.833 0 01-2.04-1.598l-.041-.342zm-5.103.975a3.362 3.362 0 003.743 2.924 3.362 3.362 0 002.924-3.743l-.087-.708a1.148 1.148 0 00-.436-.77 1.149 1.149 0 00-.851-.235l-4.375.537c-.306.037-.58.192-.769.435-.19.243-.274.546-.236.852z"/><path d="M24.802 8.127c.208-1.612-.028-3.251-.665-4.616-.748-1.602-2.02-2.797-3.679-3.457a.762.762 0 00-.959.36c-.82 1.595-2.8 2.73-5.296 3.036L9.8 3.991a.762.762 0 10.185 1.512l4.405-.54c2.68-.33 4.896-1.516 6.086-3.225 2.483 1.326 3.086 4.105 2.816 6.194-.28 2.171-1.421 3.804-2.776 3.97l-14.82 1.82a2.25 2.25 0 00-1.958 2.505l.182 1.484-1.154.141-1.157-9.424a1.87 1.87 0 01.385-1.388 1.87 1.87 0 011.254-.71l3.697-.453a.762.762 0 00-.186-1.512l-3.697.454A3.41 3.41 0 00.096 8.614l1.196 9.741A2.637 2.637 0 00.205 20.82a2.635 2.635 0 002.934 2.292l1.422-.175.14 1.134a8.913 8.913 0 003.38 5.976 8.902 8.902 0 006.616 1.835 8.92 8.92 0 003.24-1.046 8.927 8.927 0 002.537-2.09.762.762 0 10-1.167-.978 7.412 7.412 0 01-4.796 2.602 7.397 7.397 0 01-5.492-1.523 7.4 7.4 0 01-2.806-4.961l-.233-1.891a.762.762 0 00-.85-.664l-2.173.268a1.11 1.11 0 01-.56-2.127l.003-.001c.09-.037.185-.062.283-.074l2.178-.267a.762.762 0 00.663-.85l-.275-2.239a.725.725 0 01.63-.807l14.065-1.727 1.052 8.564a7.373 7.373 0 01-.332 3.283.762.762 0 001.444.487 8.883 8.883 0 00.4-3.956l-1.062-8.648c1.72-.612 3.028-2.56 3.356-5.11zM39.61 40.111a.701.701 0 01.984.12.76.76 0 101.2-.937 2.227 2.227 0 00-3.121-.383.762.762 0 10.938 1.2zm-8.747-2.161a.762.762 0 10.938 1.201.702.702 0 01.983.12.76.76 0 001.07.132.762.762 0 00.13-1.07 2.226 2.226 0 00-3.121-.382zm5.329 7.718a1.815 1.815 0 01-1.35.375 1.833 1.833 0 01-1.593-2.045l.042-.342 3.633.447c-.044.161.023.974-.732 1.565zm1.293-3.032l-4.374-.537a1.149 1.149 0 00-.852.236c-.547.427-.42 1.002-.522 1.477-.366 2.983 3.069 4.878 5.401 3.056 1.402-1.095 1.261-2.605 1.353-2.945a1.156 1.156 0 00-1.006-1.287z"/><path d="M49.577 26.148a3.383 3.383 0 00-2.269-1.283l-10.467-1.286a1.428 1.428 0 01-.98-.582 6.628 6.628 0 00-2.85-2.256.762.762 0 00-.581 1.408 5.104 5.104 0 012.195 1.738 2.955 2.955 0 002.03 1.205l10.467 1.285a1.884 1.884 0 011.64 2.097l-1.158 9.424-1.154-.141.182-1.484a2.25 2.25 0 00-1.957-2.504l-14.821-1.82a5.07 5.07 0 01-3.466-2.006 5.075 5.075 0 01-.956-3.893 5.137 5.137 0 014.442-4.252.762.762 0 10-.182-1.512c-2.923.35-5.294 2.621-5.764 5.52a6.586 6.586 0 001.242 5.052 6.57 6.57 0 003.748 2.466l-1.057 8.607a8.926 8.926 0 00.232 3.399.762.762 0 001.472-.392 7.41 7.41 0 01-.192-2.821l1.052-8.563 14.064 1.726c.396.05.68.411.63.808l-.274 2.24a.762.762 0 00.663.848l2.178.267a1.1 1.1 0 01.267.069 1.11 1.11 0 11-.537 2.134l-2.178-.268a.762.762 0 00-.85.663l-.232 1.891a7.4 7.4 0 01-2.807 4.961 7.395 7.395 0 01-5.492 1.524 7.423 7.423 0 01-5.096-2.984.762.762 0 00-1.228.901 8.94 8.94 0 006.139 3.595 8.902 8.902 0 006.616-1.835 8.913 8.913 0 003.38-5.976l.14-1.135c1.36.161 1.465.195 1.745.195a2.635 2.635 0 001.525-4.78l1.195-9.738a3.382 3.382 0 00-.696-2.512zM38.792 9.778c.42 0 .761-.341.761-.762V7.152a.762.762 0 00-1.523 0v1.864c0 .421.341.762.762.762zm0 5.73c.42 0 .761-.341.761-.762v-1.864a.762.762 0 00-1.523 0v1.864c0 .421.341.762.762.762zm1.94-3.795h1.864a.762.762 0 000-1.523h-1.864a.762.762 0 000 1.523zm-5.73 0h1.864a.762.762 0 000-1.523h-1.864a.762.762 0 000 1.523zM11.582 36.49a.762.762 0 00-.762.762v1.864a.762.762 0 001.523 0v-1.864a.762.762 0 00-.761-.762zm0 5.73a.762.762 0 00-.762.762v1.864a.762.762 0 001.523 0v-1.864a.762.762 0 00-.761-.762zm3.794-1.93h-1.864a.762.762 0 000 1.523h1.864a.762.762 0 000-1.523zm-5.73 0H7.782a.762.762 0 000 1.523h1.864a.762.762 0 100-1.523z"/></svg>