<svg xmlns="http://www.w3.org/2000/svg" width="241" height="25"><defs><clipPath id="sze7a"><path d="M0 25h242V-1H0z"/></clipPath></defs><path fill="#0d54a0" d="M129.392 12.435L135 12.43v5.723h-5.578l.027 6.835h-6.673l.02-17.056-10.47 14.606C111.079 24.15 109.542 25 108.354 25h-5.91l5.336-7.26L97.76 6.918H86.677c-.58-.053-1.031.193-1.155.748l.003 11.003c.045.512.305.79.805.896h15.689L97.703 25H82.236c-2.52 0-3.51-1.994-3.51-3.341l-.011-12.024-9.302 12.967C68.033 24.404 66.573 25 65.75 25h-6.278l5.345-7.26-9.932-10.822h-7.687L47.18 25h-6.583V6.918H32V1h24.117c1.543 0 3.118 1.213 3.868 2.12l8.579 9.538 6.887-9.36C76.595 1.79 78.103 1 79.864 1H99.13c1.573 0 3.178 1.269 4.149 2.37l8.244 9.296 6.569-8.923c1.148-1.656 2.717-2.632 4.4-2.743H135v5.918h-5.632zM144.393 18c1.155 0 2.601-1.24 2.601-2.582L147 4.15c0-1.377-1.261-3.15-2.69-3.15H135v5.865h4.508c.633 0 .98.455.98.907l.012 3.814c0 .438-.52.742-1.018.742H135V18zm18.966-14.534V11h-1.726V3.466H159V2h7v1.466zM168 2h1.62v6.02c0 .635.105 1.05.326 1.24.224.198.744.294 1.565.294.824 0 1.341-.096 1.556-.293.211-.192.32-.606.32-1.24V2H175v5.936c0 1.18-.21 1.972-.629 2.376-.478.456-1.444.688-2.905.688-1.458 0-2.412-.232-2.871-.688-.392-.394-.595-1.195-.595-2.387zm9 6.073h1.81c0 .683.12 1.105.367 1.275.252.17.842.254 1.78.254.879 0 1.47-.095 1.77-.281.293-.19.438-.52.438-.986 0-.463-.17-.781-.511-.948-.34-.168-.986-.252-1.927-.252-1.244 0-2.153-.178-2.732-.539-.664-.415-.995-1.119-.995-2.104 0-.8.275-1.406.825-1.811.628-.452 1.658-.681 3.091-.681 1.283 0 2.205.142 2.782.427.718.354 1.075.982 1.075 1.89v.342h-1.832c0-.55-.133-.91-.395-1.076-.26-.166-.786-.252-1.589-.252-.792 0-1.348.11-1.654.327-.263.179-.392.462-.392.846 0 .488.113.8.335.942.312.196.998.288 2.059.288 1.25 0 2.16.176 2.739.522.636.383.956 1.021.956 1.925 0 1.042-.252 1.761-.754 2.15-.581.444-1.668.669-3.289.669-1.38 0-2.342-.148-2.896-.432-.703-.38-1.061-1.088-1.061-2.14zM187 2h1.84v6.02c0 .635.132 1.05.384 1.24.253.198.847.294 1.788.294.942 0 1.533-.096 1.774-.293.246-.192.371-.606.371-1.24V2H195v5.936c0 1.18-.24 1.972-.718 2.376-.549.456-1.655.688-3.321.688-1.667 0-2.758-.232-3.28-.688-.456-.394-.681-1.195-.681-2.387zm11.897 5.985V11H197V2h4v1.466h-2.103v3.056H201v1.463zm2.695-4.52c.573 0 .969.124 1.194.375.206.223.305.619.305 1.177 0 .532-.122.917-.359 1.15-.246.237-.644.355-1.214.355H201v1.463h.518c.458 0 .824.094 1.077.274.265.182.39.479.39.907V11h1.886V9.015c0-.54-.132-.97-.407-1.275-.27-.3-.681-.45-1.23-.45v-.053c.703-.077 1.183-.362 1.452-.853.212-.364.314-.898.314-1.597 0-1.002-.254-1.717-.772-2.145-.514-.426-1.315-.642-2.408-.642H201v1.466zM159 14h1.84v6.023c0 .632.128 1.047.381 1.241.253.194.847.292 1.787.292.944 0 1.529-.098 1.776-.292.243-.194.373-.609.373-1.24V14H167v5.933c0 1.184-.24 1.979-.72 2.379-.548.456-1.654.688-3.322.688-1.663 0-2.76-.232-3.282-.688-.455-.394-.676-1.19-.676-2.387zm10 0h3.101l4.046 7.54.013-7.54H178v9h-3.097l-4.047-7.533-.012 7.533H169z"/><g clip-path="url(#sze7a)"><path fill="#0d54a0" d="M180 23h2v-9h-2z"/></g><g clip-path="url(#sze7a)"><path fill="#0d54a0" d="M184 14h1.68l2.316 7.56 2.308-7.56H192l-2.768 9h-2.482z"/></g><g clip-path="url(#sze7a)"><path fill="#0d54a0" d="M195.687 15.43v2.303h4.119v1.427h-4.12v2.41H200V23h-6v-9h6v1.43z"/></g><g clip-path="url(#sze7a)"><path fill="#0d54a0" d="M203.897 19.991V23H202v-9h4v1.465h-2.103v3.057H206v1.469zm2.7-4.526c.562 0 .964.123 1.189.371.201.226.298.622.298 1.184 0 .53-.115.909-.358 1.146-.243.24-.64.357-1.206.357H206v1.468h.52c.459 0 .818.086 1.075.265.258.183.386.486.386.907V23h1.883v-1.982c0-.545-.135-.966-.405-1.275-.268-.305-.681-.456-1.225-.456v-.052c.696-.077 1.18-.362 1.445-.85.215-.367.321-.903.321-1.599 0-.998-.261-1.717-.775-2.144-.516-.426-1.313-.642-2.407-.642H206v1.465z"/></g><g clip-path="url(#sze7a)"><path fill="#0d54a0" d="M211 20.073h1.804c0 .682.123 1.107.376 1.274.243.17.841.258 1.776.258.881 0 1.472-.095 1.763-.285.3-.19.446-.518.446-.987 0-.463-.171-.775-.51-.946-.337-.173-.985-.255-1.933-.255-1.245 0-2.152-.172-2.728-.538-.665-.42-.994-1.12-.994-2.103 0-.807.271-1.41.825-1.81.625-.452 1.662-.681 3.096-.681 1.276 0 2.199.143 2.777.425.718.351 1.078.98 1.078 1.887v.344h-1.836c0-.55-.129-.91-.392-1.078-.259-.165-.79-.251-1.592-.251-.794 0-1.35.114-1.656.327-.259.184-.391.463-.391.848 0 .49.113.798.335.941.308.196 1 .294 2.06.294 1.25 0 2.163.17 2.741.52.636.378.955 1.023.955 1.923 0 1.041-.253 1.76-.757 2.153-.576.444-1.67.667-3.287.667-1.38 0-2.341-.145-2.895-.435-.708-.377-1.061-1.09-1.061-2.139z"/></g><g clip-path="url(#sze7a)"><path fill="#0d54a0" d="M221 23h2v-9h-2z"/></g><g clip-path="url(#sze7a)"><path fill="#0d54a0" d="M228.364 15.466V23h-1.726v-7.534H224V14h7v1.466z"/></g><g clip-path="url(#sze7a)"><path fill="#0d54a0" d="M232 14h2.112l2.36 3.851L238.819 14H241l-3.626 5.537V23h-1.88v-3.463z"/></g><g clip-path="url(#sze7a)"><path fill="#0d54a0" d="M6.4 6.83c-.43.495-.828 1.012-1.209 1.544L15 4.798v.926L4.363 9.604c-.295.489-.574.98-.826 1.486L15 6.902v.931L3.12 12.168c-.033.006-.064.017-.092.023a14.14 14.14 0 00-.534 1.449L15 9.077v11.077l-.553 2.952c.188-.077.366-.158.553-.247V24h-3.228c.826-.195 1.66-.468 2.492-.813l-1.32-10.439-10.498 1.036c-1.547 5.01.097 9.05 4.03 10.216H2.77C1.21 24 0 22.692 0 21.014V2.99C0 1.305 1.211 0 2.77 0H15v.061h2a14.58 14.58 0 00-2 .878V.586c-2.577 1-5.12 2.703-7.284 4.833L15 2.765v.925zM22.261 0L15 2.765v.925L23.4.492c.359.206.69.447.987.723L15 4.798v.926L25.027 1.9c.232.299.44.609.625.951a.295.295 0 00-.082.024L15 6.902v.931l10.887-4.148.11-.055c.134.36.237.742.322 1.133L15 9.077v11.077l1.53-8.584 9.818-6.677c.373 2.009.065 4.44-1.05 7.065C23.31 16.67 19.271 20.769 15 22.859V24h11.343C27.84 24 29 22.692 29 21.014V2.99C29 1.305 27.84 0 26.343 0z"/></g></svg>