<svg width="287" height="30" xmlns="http://www.w3.org/2000/svg" xmlns:xlink="http://www.w3.org/1999/xlink"><defs><path id="path-1" d="M0 31h288V0H0z"/></defs><g id="Page-1" stroke="none" stroke-width="1" fill="none" fill-rule="evenodd"><g id="fullhd" transform="translate(-449 -8672)"><g id="footer" transform="translate(0 8620)"><g id="Group-27" transform="translate(449 51)"><path d="M160.402 15.81h5.452c.605 0 1.239-.37 1.239-.904l-.015-4.65c0-.55-.422-1.105-1.192-1.105h-5.484V2h11.326C173.465 2 175 4.162 175 5.84l-.007 13.738c0 1.635-1.76 3.148-3.164 3.148h-11.427v-6.915zm-6.664.007l6.664-.006v6.915h-6.63l.033 8.26h-7.93l.025-20.61-12.444 17.65c-1.481 1.946-3.307 2.974-4.72 2.974h-7.023l6.342-8.772L116.146 9.15h-13.169c-.689-.064-1.225.233-1.373.904l.005 13.295c.053.62.362.954.957 1.082h18.644L116.08 31H97.697c-2.994 0-4.17-2.41-4.17-4.037l-.014-14.53-11.053 15.67C80.82 30.278 79.086 31 78.108 31h-7.461l6.352-8.772L65.196 9.15h-9.135L56.04 31h-7.824V9.15H38V2h28.66c1.833 0 3.706 1.466 4.596 2.561L81.45 16.086l8.185-11.309C90.995 2.954 92.786 2 94.88 2h22.895c1.869 0 3.777 1.533 4.93 2.865l9.798 11.232 7.805-10.783c1.365-2 3.23-3.18 5.23-3.314h14.864v7.15h-6.694l.03 6.667z" id="Fill-1" fill="#FFF"/><path id="Fill-3" fill="#FFF" d="M194.604 4.791V14h-2.22V4.791H189V3h9v1.791z"/><path d="M200 3h2.084v7.359c0 .775.134 1.281.418 1.515.288.242.956.358 2.013.358 1.06 0 1.723-.116 2-.358.271-.234.412-.74.412-1.515V3H209v7.256c0 1.442-.27 2.41-.808 2.903-.615.558-1.857.841-3.735.841-1.876 0-3.102-.283-3.693-.841-.503-.482-.764-1.46-.764-2.917V3z" id="Fill-5" fill="#FFF"/><path d="M211 10.423h2.036c0 .835.135 1.35.413 1.558.284.208.947.31 2.003.31.988 0 1.653-.116 1.99-.344.33-.232.493-.634.493-1.204 0-.566-.191-.955-.574-1.16-.384-.204-1.11-.307-2.168-.307-1.4 0-2.423-.218-3.074-.658C211.373 8.11 211 7.25 211 6.046c0-.98.31-1.718.928-2.214.707-.552 1.866-.832 3.478-.832 1.443 0 2.48.173 3.13.522.807.433 1.208 1.2 1.208 2.309v.42h-2.06c0-.673-.15-1.113-.445-1.316-.291-.203-.884-.308-1.787-.308-.892 0-1.517.134-1.861.4-.295.218-.441.565-.441 1.033 0 .596.127.979.376 1.152.352.24 1.123.352 2.317.352 1.407 0 2.43.215 3.081.638.716.467 1.076 1.248 1.076 2.353 0 1.273-.284 2.152-.848 2.627-.654.543-1.877.818-3.7.818-1.552 0-2.636-.18-3.258-.528-.792-.464-1.194-1.33-1.194-2.616v-.433z" id="Fill-7" fill="#FFF"/><path d="M223 3h2.07v7.359c0 .775.148 1.281.432 1.515.284.242.953.358 2.012.358 1.06 0 1.724-.116 1.996-.358.276-.234.417-.74.417-1.515V3H232v7.256c0 1.442-.27 2.41-.807 2.903-.618.558-1.862.841-3.737.841s-3.102-.283-3.69-.841c-.513-.482-.766-1.46-.766-2.917V3z" id="Fill-9" fill="#FFF"/><path d="M239.49 3h.924c1.232 0 2.136.265 2.715.785.584.523.871 1.397.871 2.621 0 .855-.115 1.507-.354 1.953-.303.6-.844.948-1.637 1.042v.064c.618 0 1.081.184 1.387.55.31.372.459.899.459 1.558V14h-2.128v-2.241c0-.524-.14-.886-.44-1.11-.284-.219-.697-.335-1.214-.335h-.584V8.526h.584c.643 0 1.092-.143 1.37-.433.267-.285.405-.755.405-1.405 0-.683-.113-1.167-.345-1.44-.254-.306-.7-.457-1.346-.457h-.668V3zm-2.361 7.314V14H235V3h4.49v1.791h-2.361v3.735h2.36v1.788h-2.36z" id="Fill-11" fill="#FFF"/><path d="M190 18h2.07v7.362c0 .772.144 1.279.429 1.516.285.237.953.358 2.01.358 1.062 0 1.72-.121 1.998-.358.274-.237.42-.744.42-1.516V18H199v7.252c0 1.446-.27 2.418-.81 2.907-.617.558-1.86.841-3.737.841-1.872 0-3.104-.283-3.692-.841-.513-.482-.761-1.454-.761-2.917V18z" id="Fill-13" fill="#FFF"/><path id="Fill-15" fill="#FFF" d="M202 18h3.446l4.495 9.214.014-9.214H212v11h-3.441l-4.497-9.207-.014 9.207H202z"/><mask id="mask-2" fill="#fff"><use xlink:href="#path-1"/></mask><path id="Fill-17" fill="#FFF" mask="url(#mask-2)" d="M215 29h2V18h-2z"/><path id="Fill-19" fill="#FFF" mask="url(#mask-2)" d="M219 18h2.1l2.895 9.24 2.886-9.24H229l-3.46 11h-3.103z"/><path id="Fill-20" fill="#FFF" mask="url(#mask-2)" d="M233.25 19.747v2.816h5.49v1.744h-5.49v2.946H239V29h-8V18h8v1.747z"/><path d="M245.487 18h.922c1.235 0 2.135.264 2.717.785.58.522.874 1.4.874 2.62 0 .85-.12 1.506-.362 1.955-.299.596-.845.945-1.631 1.039v.063c.614 0 1.08.185 1.382.557.306.378.457.892.457 1.559V29h-2.124v-2.245c0-.515-.144-.885-.435-1.108-.291-.22-.696-.325-1.214-.325h-.586v-1.794h.586c.639 0 1.087-.144 1.361-.436.275-.29.404-.753.404-1.401 0-.687-.109-1.17-.336-1.447-.254-.303-.708-.453-1.343-.453h-.672V18zm-2.36 7.322V29H241V18h4.487v1.79h-2.36v3.738h2.36v1.794h-2.36z" id="Fill-21" fill="#FFF" mask="url(#mask-2)"/><path d="M252 25.423h2.03c0 .833.138 1.352.423 1.557.273.208.946.315 1.998.315.991 0 1.655-.117 1.983-.349.337-.232.501-.632.501-1.205 0-.567-.192-.948-.572-1.157-.38-.211-1.109-.311-2.176-.311-1.4 0-2.42-.21-3.068-.658-.75-.513-1.119-1.369-1.119-2.57 0-.986.305-1.724.928-2.212.703-.553 1.87-.833 3.483-.833 1.436 0 2.474.174 3.125.52.807.429 1.212 1.197 1.212 2.306v.42h-2.065c0-.673-.145-1.113-.442-1.317-.29-.202-.888-.308-1.79-.308-.894 0-1.52.14-1.863.4-.291.225-.44.566-.44 1.037 0 .598.127.976.376 1.15.347.24 1.126.359 2.318.359 1.407 0 2.433.208 3.084.635.715.464 1.074 1.252 1.074 2.351 0 1.273-.285 2.15-.852 2.631-.648.544-1.878.816-3.697.816-1.554 0-2.635-.177-3.257-.532-.797-.46-1.194-1.332-1.194-2.614v-.43z" id="Fill-22" fill="#FFF" mask="url(#mask-2)"/><path id="Fill-23" fill="#FFF" mask="url(#mask-2)" d="M264 29h2V18h-2z"/><path id="Fill-24" fill="#FFF" mask="url(#mask-2)" d="M272.61 19.792V29h-2.219v-9.208H267V18h9v1.792z"/><path id="Fill-25" fill="#FFF" mask="url(#mask-2)" d="M277 18h2.347l2.622 4.707L284.577 18H287l-4.028 6.768V29h-2.09v-4.232z"/><path d="M30.813 1H25.92l-8.706 3.34v1.12l10.072-3.866c.43.25.827.541 1.184.875L17.213 6.797v1.12l12.024-4.621c.277.36.527.736.749 1.15a.351.351 0 00-.099.027L17.213 9.34v1.125l13.055-5.012c.05-.024.091-.046.13-.066.161.433.285.895.388 1.368l-13.573 5.214v13.384l1.834-10.372L30.82 6.91c.448 2.429.078 5.367-1.26 8.538-2.383 5.694-7.224 10.647-12.347 13.173V30h13.6C32.61 30 34 28.42 34 26.392V4.612C34 2.578 32.609 1 30.813 1zm-13.6.708V1h2.066c-.682.187-1.38.423-2.066.708zm0 2.632L8.854 7.548c2.483-2.574 5.401-4.631 8.359-5.84V1H3.178C1.39 1 0 2.577 0 4.613v21.779C0 28.42 1.39 30 3.178 30h4.254c-4.514-1.41-6.4-6.29-4.625-12.345l12.047-1.25 1.514 12.612a18.12 18.12 0 01-2.859.983h3.704v-1.378a13.2 13.2 0 01-.634.298l.634-3.567V11.969L2.863 17.48c.168-.577.368-1.16.612-1.75.032-.007.067-.02.105-.028l13.633-5.238V9.34L4.058 14.4c.29-.61.61-1.205.948-1.795l12.207-4.689V6.797L5.957 11.118c.436-.642.894-1.267 1.387-1.865l9.869-3.794V4.34z" id="Fill-26" fill="#FFF" mask="url(#mask-2)"/></g></g></g></g></svg>