<svg xmlns="http://www.w3.org/2000/svg" width="320" height="317"><defs><clipPath id="l878a"><path d="M0 32.35h319.569v279.652H0z"/></clipPath><clipPath id="l878c"><path d="M0 312h320V0H0z"/></clipPath><filter id="l878b" width="144%" height="144%" x="-12%" y="-12%" filterUnits="objectBoundingBox"><feGaussianBlur in="SourceGraphic" result="FeGaussianBlur1039Out" stdDeviation="2 2"/></filter></defs><g clip-path="url(#l878a)" opacity=".57"><path fill="#9ec9f9" d="M299.828 184.9c-.99 1.59-1.977 3.153-3.03 4.71-9.21 13.833-20.64 27.12-33.297 39.333a120.98 120.98 0 01-1.77 1.707 220.554 220.554 0 01-5.523 5.07 216.995 216.995 0 01-9.87 8.52c-1.77 1.5-3.597 2.973-5.4 4.41-20.937 16.563-43.317 31.053-65.37 41.97-6.837 3.423-13.677 6.48-20.427 9.12-35.223 13.953-68.01 17.223-90.63 3.39-7.203-4.38-13.353-10.5-18.243-18.567-.78-1.293-1.56-2.583-2.34-3.87-7.227-12.093-14.13-24.24-20.19-36.453a272.59 272.59 0 01-4.107-8.52c-21.99-47.25-30.363-95.07.807-142.11 12.12-18.297 32.013-32.547 55.89-42.63 6.813-2.907 13.92-5.43 21.303-7.62 3.63-1.14 7.287-2.13 11.037-3.027 4.713-1.2 9.51-2.25 14.37-3.153 3.723-.717 7.44-1.347 11.19-1.89 1.56-.207 3.12-.417 4.68-.63 11.07-1.407 22.29-2.19 33.453-2.277 1.467-.033 2.937-.033 4.38-.033 6.75.033 13.437.3 20.037.843 1.77.12 3.54.27 5.31.477 33.69 3.273 64.59 12.93 85.59 28.953 4.59 3.51 8.703 7.287 12.27 11.4.663.75 1.293 1.5 1.89 2.277.21.24.393.48.6.723 4.35 5.457 7.83 11.1 10.443 16.86 13.35 29.07 5.547 61.137-13.053 91.017"/></g><path fill="#e8e5ea" d="M232.425 273.19c-8.034 8.57-13.754 20.824-5.113 28.084 9.651 8.106 29.557 6.224 39.848-9.07 6.578-9.768 10.06-25.213 2.773-33.876-6.239-7.418-27.652 4.348-37.508 14.863"/><path fill="#d8d5db" d="M190.355.326c.21 0 .36.177.36.39-.03.21-.18.36-.39.36h-.03c-1.983-.18-3.995-.3-6.008-.33-.21 0-.36-.18-.36-.39 0-.21.18-.36.39-.36 2.013.03 4.055.15 6.038.33M178.27.09c.18 0 .36.18.36.358a.35.35 0 01-.33.394c-2.01.12-4.02.3-6 .54h-.03a.39.39 0 01-.39-.33c-.03-.21.12-.39.33-.42 1.98-.241 4.02-.422 6.03-.542h.03m24.07 2.069c.211.06.331.24.301.449-.06.18-.21.3-.39.3 0 0-.03 0-.06-.03-1.983-.42-3.965-.78-5.918-1.079a.402.402 0 01-.33-.45c.03-.179.24-.329.45-.299 1.953.3 3.965.69 5.948 1.109m-36.108-.596c.21-.03.39.12.45.3.03.211-.12.421-.3.452a95.007 95.007 0 00-5.857 1.352h-.09c-.18 0-.33-.12-.36-.27-.061-.21.06-.421.27-.451a74.842 74.842 0 015.887-1.383m47.763 3.87c.21.06.3.267.24.48a.39.39 0 01-.36.24h-.12a105.4 105.4 0 00-5.738-1.798c-.21-.06-.33-.27-.27-.45a.385.385 0 01.48-.269 106.35 106.35 0 015.768 1.798m-59.448-.745c.18-.06.39.03.45.24.09.181-.03.391-.21.451a98.33 98.33 0 00-5.647 2.105c-.03.03-.09.03-.15.03-.12 0-.27-.09-.331-.244-.09-.177 0-.388.21-.478a99.226 99.226 0 015.678-2.104m70.683 5.23c.21.09.3.298.21.511-.06.12-.21.21-.36.21-.06 0-.09 0-.15-.03-1.803-.81-3.665-1.622-5.528-2.344-.21-.09-.3-.303-.21-.51.06-.181.3-.271.48-.211a181.49 181.49 0 015.558 2.374m-81.397-.481c.09.18 0 .39-.18.48a149.339 149.339 0 00-5.357 2.727c-.06.03-.12.06-.18.06-.12 0-.271-.06-.331-.21-.09-.18-.03-.39.15-.51 1.775-.962 3.61-1.888 5.386-2.727.21-.09.421-.03.512.18m92.211 5.982c.18.09.24.33.12.511-.06.12-.18.18-.33.18-.06 0-.12 0-.18-.06a131.678 131.678 0 00-5.287-2.828c-.18-.117-.27-.328-.18-.508.09-.184.33-.27.51-.184a160.54 160.54 0 015.347 2.889m-102.825-.27c.09.18.06.42-.12.54a100.876 100.876 0 00-5.077 3.247c-.06.03-.12.06-.21.06a.37.37 0 01-.3-.15c-.121-.18-.091-.421.09-.541a133.24 133.24 0 015.106-3.277c.15-.09.39-.03.51.12m113.04 6.725c.18.12.21.33.09.51-.06.12-.18.15-.3.15-.06 0-.15 0-.21-.06a181.479 181.479 0 00-5.017-3.328c-.18-.09-.24-.33-.12-.51a.39.39 0 01.51-.12 113.266 113.266 0 015.047 3.358m-123.082.008c.12.18.09.417-.06.54-1.59 1.14-3.179 2.37-4.768 3.66-.09.059-.15.089-.24.089-.12 0-.21-.06-.3-.15a.413.413 0 01.06-.54c1.62-1.26 3.209-2.519 4.798-3.659.15-.15.39-.09.51.06m132.665 7.395c.15.12.18.36.03.511-.06.09-.18.15-.27.15a.34.34 0 01-.241-.09c-1.532-1.292-3.094-2.585-4.686-3.79-.15-.117-.18-.358-.06-.538.12-.15.36-.18.54-.06 1.563 1.232 3.155 2.494 4.687 3.817m-142.088.12c.12.15.09.391-.06.541-.811.692-1.622 1.38-2.433 2.104l-1.082.992-.991.902a.34.34 0 01-.24.09c-.12 0-.21-.06-.3-.12a.413.413 0 01.03-.541c.18-.18.39-.33.57-.48.24-.241.48-.482.75-.692 1.052-.962 2.134-1.894 3.215-2.826.15-.15.39-.12.54.03m150.92 8.146c.12.12.12.36-.03.511-.06.09-.15.12-.24.12a.38.38 0 01-.27-.12c-1.382-1.413-2.824-2.855-4.296-4.208a.413.413 0 01-.03-.541.38.38 0 01.54 0c1.473 1.353 2.914 2.795 4.326 4.238m-159.87-.03c.15.15.15.39 0 .541a188.43 188.43 0 00-4.267 4.238c-.09.09-.18.12-.27.12-.12 0-.21-.03-.27-.12-.15-.12-.15-.36 0-.514a196.93 196.93 0 014.295-4.265c.15-.15.36-.15.511 0m167.862 9.108c.12.15.09.39-.06.51-.09.061-.15.091-.24.091-.12 0-.21-.06-.3-.15a115.265 115.265 0 00-3.846-4.6.358.358 0 01.03-.54c.15-.12.39-.12.51.03a118.5 118.5 0 013.906 4.659M96.33 46.11c.15.15.18.39.03.54a299.086 299.086 0 00-4.086 4.45c-.06.09-.18.12-.27.12a.34.34 0 01-.24-.09c-.15-.15-.18-.361-.03-.541 1.352-1.503 2.703-3.006 4.085-4.45.12-.15.36-.15.51-.03m183.403 10.31c.12.181.09.422-.09.512-.06.06-.15.06-.211.06a.37.37 0 01-.301-.15c-1.084-1.684-2.259-3.337-3.433-4.96a.414.414 0 01.09-.541c.181-.12.422-.09.542.09a132.789 132.789 0 013.403 4.99M88.28 55.097c.15.151.15.392.03.543-1.291 1.505-2.613 3.041-3.905 4.607-.06.09-.18.15-.27.15a.34.34 0 01-.24-.09c-.18-.12-.18-.361-.06-.542 1.291-1.566 2.613-3.102 3.905-4.607.15-.15.36-.181.54-.06M285.861 66.88c.09.18 0 .421-.18.508-.06.033-.121.033-.181.033a.416.416 0 01-.332-.18c-.33-.664-.692-1.323-1.024-1.954-.632-1.142-1.235-2.254-1.867-3.336-.12-.18-.06-.391.12-.511.181-.09.422-.03.512.15a66.543 66.543 0 011.808 3.186c.391.692.753 1.383 1.144 2.104m-205.31-2.498c.15.154.18.394.06.545a327.694 327.694 0 00-3.747 4.749l-.06.06a.34.34 0 01-.24.09c-.06 0-.15-.03-.21-.09-.18-.12-.21-.36-.06-.541.03-.06.09-.09.12-.15 1.199-1.533 2.368-3.096 3.597-4.6.15-.15.36-.18.54-.063m210.347 13.49c.03.028.03.06.03.09.03.18-.09.33-.24.39-.06.03-.09.03-.15.03-.15 0-.27-.09-.33-.24l-.091-.18c-.18-.51-.39-.99-.63-1.5-.181-.48-.391-.99-.632-1.5-.33-.78-.69-1.564-1.051-2.341-.09-.18 0-.39.18-.48.21-.09.42 0 .51.18a81.652 81.652 0 011.473 3.36 15 15 0 01.33.781c.21.48.42.96.601 1.41M73.14 73.945c.15.12.18.36.06.511a287.102 287.102 0 00-3.574 4.84.423.423 0 01-.33.18.326.326 0 01-.211-.09c-.15-.12-.21-.361-.09-.511a325.808 325.808 0 013.604-4.87c.15-.15.361-.18.541-.06m-7.15 9.74c.151.12.211.33.09.51a302.313 302.313 0 00-3.484 4.927.361.361 0 01-.3.153c-.09 0-.15 0-.24-.06-.15-.12-.21-.36-.09-.511 1.171-1.683 2.343-3.307 3.484-4.93.12-.18.36-.21.54-.09m228.46 4.306c.151.448.302.903.422 1.354a.395.395 0 01-.24.482h-.121a.379.379 0 01-.362-.27c-.06-.242-.15-.453-.21-.693a124.087 124.087 0 00-1.628-5.058c-.06-.18.03-.391.24-.482.182-.06.423.03.483.241.482 1.445.964 2.92 1.417 4.426m-235.4 5.583a.39.39 0 01.12.511l-.15.21c-1.14 1.65-2.252 3.337-3.364 5.02a.33.33 0 01-.3.18c-.06 0-.15-.03-.21-.06-.18-.12-.21-.36-.09-.543 1.08-1.68 2.222-3.364 3.334-5.017l.15-.21c.12-.18.36-.21.51-.09m238.644 7.334c0 .06.03.15.03.21.03.21-.09.39-.301.45h-.06a.358.358 0 01-.362-.3c-.03-.123-.06-.27-.09-.39a119.695 119.695 0 00-1.206-5.501c-.06-.21.09-.421.271-.451.211-.06.422.06.452.267.452 1.927.905 3.82 1.236 5.715h.03m-245.402 2.975c.18.12.24.328.12.511a294.861 294.861 0 00-3.124 5.17c-.06.12-.18.18-.33.18-.06 0-.12-.03-.181-.06-.18-.12-.24-.33-.12-.51a284.105 284.105 0 013.124-5.17c.12-.18.36-.24.51-.12m246.416 3.216c.3 2.014.541 4.028.721 6.041.03.21-.12.391-.33.391h-.03c-.21 0-.36-.12-.39-.33a135.877 135.877 0 00-.692-5.985c-.03-.207.09-.388.3-.418.211-.06.391.09.421.3m-252.573 7.155c.18.12.24.33.15.51-1.022 1.774-1.983 3.578-2.914 5.29a.35.35 0 01-.33.211c-.06 0-.12-.03-.18-.06a.35.35 0 01-.151-.48c.931-1.744 1.893-3.55 2.914-5.321.09-.18.33-.24.51-.15m253.716 4.926c.09 1.987.15 4.031.15 6.045 0 .21-.18.39-.39.39-.18 0-.361-.18-.361-.39 0-2.014-.06-4.028-.15-6.012 0-.21.15-.39.36-.39s.39.15.39.357m-259.431 5.744c.18.088.27.302.18.512a292.993 292.993 0 00-2.666 5.42c-.06.15-.18.21-.33.21-.06 0-.09 0-.15-.033a.386.386 0 01-.18-.512c.84-1.803 1.738-3.64 2.636-5.446.09-.184.33-.24.51-.15m259.071 5.951c.21.027.39.21.36.388-.09 2.047-.21 4.06-.42 6.042 0 .213-.18.36-.36.36h-.03a.37.37 0 01-.33-.418c.18-1.983.3-3.997.39-6.011.03-.214.21-.334.39-.361m-264.259 4.96c.21.087.3.3.21.51a209.69 209.69 0 00-2.373 5.531c-.06.15-.18.24-.33.24-.06 0-.09 0-.15-.03-.18-.06-.27-.303-.21-.48a185.15 185.15 0 012.372-5.564c.09-.207.3-.298.481-.207m263.208 7.063c.21.027.33.24.33.451-.27 1.951-.6 3.965-.96 5.979-.061.183-.211.304-.391.304h-.06c-.21-.064-.33-.24-.3-.454.36-1.984.69-3.965.96-5.949.03-.21.24-.36.42-.33m-267.773 4.117c.18.058.27.298.21.481a315.988 315.988 0 00-2.042 5.681.366.366 0 01-.36.24h-.121c-.18-.092-.3-.3-.21-.483.63-1.89 1.321-3.814 2.042-5.708.06-.183.27-.274.481-.21m265.619 7.785c.21.027.331.24.301.45-.452 1.92-.964 3.902-1.507 5.852-.03.18-.18.3-.361.3-.03 0-.06-.03-.09-.03a.395.395 0 01-.272-.45c.542-1.984 1.055-3.931 1.477-5.855.06-.177.24-.327.452-.267M26.737 158.44c.211.06.332.267.271.48a104.6 104.6 0 00-1.657 5.799c-.06.153-.211.27-.362.27-.06 0-.09 0-.12-.03-.182-.027-.302-.24-.272-.447a140.284 140.284 0 011.688-5.805c.06-.207.271-.327.452-.267m266.354 7.995c.18.09.3.298.21.481-.63 1.864-1.382 3.758-2.193 5.651-.06.15-.21.24-.33.24-.06 0-.12-.03-.15-.03-.21-.09-.3-.303-.21-.51a76.68 76.68 0 002.192-5.591c.06-.214.27-.3.48-.24m-269.485 3.663c.21.064.33.24.3.454-.45 1.984-.841 3.968-1.201 5.922-.03.18-.18.3-.36.3h-.091c-.18-.06-.33-.24-.3-.45.36-1.957.78-3.938 1.201-5.922.06-.21.24-.33.45-.304m264.74 7.428c.18.087.271.328.18.51a86.234 86.234 0 01-2.973 5.291c-.06.12-.18.178-.33.178-.06 0-.12 0-.18-.027a.392.392 0 01-.12-.542 83.672 83.672 0 002.913-5.23c.12-.18.33-.24.51-.18m-266.902 4.476c.21 0 .36.213.33.423a135.17 135.17 0 00-.66 5.98c0 .182-.18.333-.361.333h-.03c-.21 0-.36-.18-.36-.391.18-1.984.39-3.998.66-6.042.03-.21.18-.36.42-.303m260.755 5.924c.18.088.21.329.09.512a112.17 112.17 0 01-3.522 4.908.368.368 0 01-.302.151c-.09 0-.18-.03-.24-.06a.384.384 0 01-.06-.545 132.84 132.84 0 003.522-4.878c.12-.178.331-.208.512-.088M20.757 197.09c0 1.11.03 2.22.06 3.328 0 .213-.15.36-.361.393h-.03c-.181 0-.362-.18-.362-.36-.03-1.11-.06-2.22-.06-3.361 0-.9 0-1.804.03-2.705 0-.207.18-.36.392-.36.21 0 .361.183.361.39-.03.904-.03 1.804-.03 2.675m254.16.452c.15.12.18.361.06.512a133.348 133.348 0 01-4.025 4.58.393.393 0 01-.27.121.33.33 0 01-.241-.093c-.15-.148-.18-.389-.03-.54a107.203 107.203 0 003.965-4.547c.15-.153.39-.183.54-.033m-8.14 8.93c.15.12.15.361 0 .511a192.87 192.87 0 01-4.356 4.205.467.467 0 01-.27.094c-.09 0-.21-.03-.27-.12a.346.346 0 01.03-.512 192.562 192.562 0 004.325-4.178.375.375 0 01.541 0m-245.574-.063c.21 2.047.51 4.028.84 5.985.03.21-.09.39-.3.418h-.06c-.18 0-.36-.12-.39-.298a94.174 94.174 0 01-.811-6.012c-.03-.213.12-.39.33-.42.21-.034.39.15.39.327m236.753 8.266c.12.184.12.391-.06.544a127.923 127.923 0 01-4.635 3.875c-.09.063-.15.09-.24.09-.12 0-.211-.057-.301-.147a.375.375 0 01.06-.511 252.759 252.759 0 004.635-3.878c.15-.12.39-.12.541.027m-234.616 3.58a70.833 70.833 0 001.748 5.741.352.352 0 01-.211.478c-.06.033-.09.033-.12.033-.182 0-.302-.09-.362-.27a81.2 81.2 0 01-1.809-5.804.424.424 0 01.271-.448c.211-.06.422.06.483.27m225.204 4.058c.15.147.12.388-.06.508a289.576 289.576 0 01-4.867 3.58c-.09.057-.15.057-.24.057-.12 0-.21-.057-.3-.147-.12-.18-.09-.39.09-.511a273.79 273.79 0 004.866-3.58c.15-.12.39-.087.511.093m-9.793 7.093c.06.15 0 .327-.12.42-.661.45-1.322.87-1.983 1.286-1.021.693-2.042 1.35-3.094 2.012-.06.03-.15.06-.21.06a.33.33 0 01-.3-.18c-.12-.18-.06-.422.12-.51.69-.449 1.412-.902 2.102-1.382a78.168 78.168 0 002.614-1.706c.12-.063.21-.15.33-.21.15-.092.39-.06.511.12 0 .027.03.06.03.09m-208.626 5.469c.09.183.03.423-.15.514-.06.03-.12.06-.18.06-.15 0-.27-.06-.33-.18-1.022-1.744-1.953-3.578-2.794-5.381-.09-.21 0-.424.18-.511.18-.09.42 0 .51.18a52.506 52.506 0 002.764 5.318m198.383.904c.09.15.09.3-.03.42-.03.027-.06.06-.09.09a635.694 635.694 0 01-5.228 3.027c-.06.027-.12.027-.18.027-.15 0-.27-.057-.33-.176-.12-.183-.06-.423.12-.51a118.168 118.168 0 004.266-2.458c.33-.18.63-.39.96-.573.181-.087.421-.03.512.153m-10.514 5.922c.09.177.03.418-.15.511-1.593.842-3.215 1.713-4.897 2.522-.15.093-.33.15-.48.243-.06.027-.12.06-.18.06a.407.407 0 01-.331-.21c0-.03-.03-.063 0-.093-.06-.147 0-.328.18-.418a184.627 184.627 0 005.347-2.765c.18-.09.42-.03.51.15m-180.898 2.913c.03.03.06.063.06.12.06.15.03.303-.09.424a.48.48 0 01-.27.087.43.43 0 01-.271-.12c-.12-.12-.21-.268-.33-.391-1.202-1.41-2.374-2.883-3.425-4.386a.375.375 0 01.06-.51c.18-.12.42-.094.54.09a60.607 60.607 0 003.726 4.686m170.114 2.525c.09.183 0 .393-.18.48-1.742.845-3.545 1.654-5.527 2.525a.217.217 0 01-.15.064c-.12 0-.27-.09-.33-.24-.09-.181 0-.422.18-.482 1.982-.872 3.754-1.716 5.497-2.525a.37.37 0 01.51.178m-161.453 5.77c.15.154.18.395.06.545-.09.09-.18.15-.301.15a.33.33 0 01-.24-.093c-.542-.418-1.054-.872-1.566-1.32a63.872 63.872 0 01-3.01-2.678.377.377 0 010-.538.383.383 0 01.542 0c.813.752 1.626 1.53 2.498 2.282a52.935 52.935 0 002.017 1.653m150.399-.838c.09.178 0 .392-.21.483a355.33 355.33 0 01-5.588 2.291c-.06 0-.12.03-.15.03-.15 0-.3-.093-.36-.24a.43.43 0 01.21-.513c1.892-.727 3.785-1.508 5.617-2.262.18-.094.39 0 .48.211m-11.705 4.204c.15-.087.39 0 .48.214.061.21-.03.418-.24.48-1.895.69-3.79 1.383-5.686 2.015-.06.027-.09.027-.12.027-.181 0-.301-.09-.362-.268-.06-.18.03-.39.241-.454 1.866-.658 3.791-1.32 5.687-2.014m-128.83 3.422c.18.087.27.327.15.51-.06.12-.18.176-.33.176-.06 0-.12 0-.18-.027l-.24-.15a99.3 99.3 0 01-4.887-3.088c-.15-.12-.21-.363-.09-.51.12-.18.36-.24.51-.12a66.443 66.443 0 004.858 3.059l.21.15m117.404.456a.4.4 0 01.48.24.396.396 0 01-.24.484c-.42.148-.84.268-1.291.418-1.442.454-2.974.905-4.476 1.353h-.12c-.15 0-.3-.087-.36-.268-.06-.213.06-.39.27-.454 1.532-.447 3.064-.928 4.536-1.382.42-.12.81-.27 1.201-.391m-106.52 4.629c.21.093.3.304.24.484a.395.395 0 01-.36.24h-.15c-.572-.213-1.142-.42-1.683-.66-1.322-.545-2.644-1.083-3.905-1.687a.395.395 0 01-.18-.511c.09-.178.33-.268.51-.178 1.172.541 2.343 1.08 3.575 1.56.66.271 1.292.511 1.952.752m94.956-1.263c.21-.027.42.094.48.271.03.213-.09.424-.27.481-1.892.484-3.875.995-5.858 1.476-.03.027-.06.027-.09.027-.18 0-.33-.12-.36-.298-.06-.21.06-.39.27-.454 1.983-.48 3.935-.992 5.828-1.503m-11.716 2.86c.21-.061.391.09.451.27.03.21-.09.42-.3.45-.601.15-1.202.271-1.803.391-1.382.298-2.763.568-4.115.809h-.06c-.18 0-.36-.12-.39-.298-.03-.213.09-.39.3-.42h.06c1.892-.361 3.905-.785 5.857-1.203m-71.704 1.834c.18.06.3.27.27.447-.03.094-.06.184-.15.214l-.03.03c-.06.027-.12.06-.18.06h-.09c-.09-.033-.18-.033-.27-.06-1.893-.45-3.756-.965-5.588-1.476a.383.383 0 01-.27-.478c.06-.21.27-.3.48-.24 1.892.54 3.845 1.052 5.828 1.503m59.869.42c.21-.03.39.09.42.298a.376.376 0 01-.3.424 285.41 285.41 0 01-6.008.902h-.03c-.18 0-.36-.15-.39-.334a.371.371 0 01.33-.418c1.952-.27 3.935-.574 5.978-.872m-48.034 1.618c.21.027.36.21.33.417-.03.213-.18.332-.36.332h-.06c-2.012-.24-4.025-.509-5.978-.868a.375.375 0 01-.33-.42.4.4 0 01.45-.302 97.93 97.93 0 005.948.841m36.078-.027c.21-.033.39.12.42.326 0 .213-.15.39-.36.423-2.013.206-4.025.39-6.008.539h-.03c-.21 0-.36-.15-.39-.36 0-.212.15-.389.36-.389 1.983-.15 3.995-.333 6.008-.54m-24.062.931c.21 0 .36.18.36.387 0 .212-.18.362-.39.362-2.043-.06-4.085-.18-6.038-.3a.421.421 0 01-.36-.422c.03-.207.15-.356.42-.326 1.923.12 3.966.24 6.008.3m12.037-.06c.18 0 .36.18.39.36 0 .206-.15.389-.36.389-2.04.087-4.05.15-6.06.15a.366.366 0 01-.36-.36c0-.213.15-.39.36-.39 1.98 0 4.02-.062 6.03-.15"/><g filter="url(#l878b)" opacity="-.72"><path fill="#7f838c" d="M215.974 229.192c.09.33-.06.814-.39 1.411-.75 1.411-2.55 3.422-4.44 5.073-.394.333-.784.66-1.175.93-1.14.931-2.251 1.655-3.122 1.922-3.063 1.02-16.303-.72-19.516-2.462a2.36 2.36 0 01-.51-.39c-1.318.09-3.273.12-5.645 0a39.225 39.225 0 01-3.513-.33c-2.972-.33-6.365-1.02-10.028-2.191a49.161 49.161 0 01-5.614-2.071 60.157 60.157 0 01-5.525-2.822c-.45-.24-.78-.54-1.17-.778.36 2.762.72 5.49 1.11 8.192.12.75.24 1.5.33 2.221.33 2.132.66 4.236 1.021 6.304 1.411 8.134 3.033 15.789 4.984 22.633.18.72.39 1.443.6 2.13-.63.09-1.26.184-1.86.271.15.69.27 1.414.39 2.131 1.5 8.105 2.642 18.1 3.482 28.366-35.248 13.958-68.065 17.23-90.703 3.392-7.206-4.382-13.361-10.506-18.255-18.58l-2.342-3.873c.15-4.232.33-7.804.48-10.235-.57-.06-.87-.06-.87-.06 0-4.893.21-11.317.54-18.73.03-.301.03-.601.03-.931.12-2.102.24-4.263.39-6.514.12-2.762.3-5.58.48-8.525.271-4.262.571-8.705.902-13.207-7.326-1.951-13.451-4.053-16.904-6.154-4.504-2.731-6.215-6.544-6.095-10.296-.06-.75-.06-1.56.12-2.401 1.711-5.673 7.596-22.573 14.262-39.352l-7.386-2.522s21.587-38.451 34.257-46.916c.06-.03.09-.06.15-.09 4.474-4.143 10.93-6.814 20.597-7.895.06-8.014-.57-21.552-1.23-31.908-3.153-.72-5.285-3.332-6.486-5.493-.15-.24-.3-.48-.39-.69-.48-.93-.751-1.711-.871-2.101-.66-2.642-.03-4.833 1.26-6.244-.27-2.191-.66-5.793-.81-9.575-.3-6.964.09-14.588 3.243-15.279-.03-.09-.09-.15-.12-.21-.81-2.491.66-5.253.72-5.343l1.321.69c0 .03-1.2 2.312-.63 4.173 2.522-2.792 11.019-3.692 19.936-3.182.51 0 1.051.06 1.561.09 1.832.15 3.663.33 5.465.6.6.06 1.17.15 1.741.27.3.03.63.09.931.15 1.952.33 3.813.751 5.524 1.231 2.943.81 5.405 1.831 7.056 3.002.54.36.961.75 1.321 1.14 1.501 1.742 1.742 2.972 1.081 3.783-.39.45-1.02.78-1.861 1.02.36 2.522.51 4.713.57 6.724.18.48.36.99.54 1.501.15.45.3.93.45 1.41.03.03.06.03.091.06.18.15.36.27.54.421.66.6 1.261 1.35 1.712 2.341l-1.351.63c-.03-.06-.06-.09-.09-.15.36 1.531.69 3.122.93 4.803.36 2.492.751 4.983 1.141 7.415.12.93.24 1.86.36 2.761.27 1.861.511 3.692.661 5.433.06.54.12 1.05.12 1.561.63 7.925-.12 14.498-4.864 17.8-.9.66-1.981 1.2-3.212 1.561-1.562.51-3.423.78-5.585.81.06 2.102.18 4.143.36 6.064.09.75.18 1.5.3 2.191.09.72.21 1.44.361 2.101 8.016 1.921 14.051 5.163 17.864 9.576.18.18.39.36.57.57 2.133 2.071 4.204 5.256 6.156 9.065 2.462 4.773 4.774 10.57 6.815 16.36.15.45.3.93.48 1.38.15.51.331.99.481 1.501.84 2.491 1.622 4.983 2.342 7.357.54 1.768 1.02 3.482 1.501 5.1 2.312 8.138 3.663 14.141 3.663 14.141l-3.663.867-1.5.36-1.082.274c.36 1.438.72 2.848 1.081 4.29.03.15.09.33.12.483.48 1.86.931 3.752 1.381 5.58 2.312 9.395 4.264 18.1 5.134 23.863 2.583 2.131 4.474 5.463 7.266 8.558 2.823 3.119 6.636 5.94 13.091 7.05.03 0 .03.031.06.031 2.525-1.981 7.206-4.32 10.058-5.19.39-.093.724-.183 1.021-.243.24-.06.453-.09.63-.09 1.205-.24 1.382-.15 2.102.3.27.21.63.48 1.201.81 2.342 1.381 4.804 2.672 6.936 3.933 2.642 1.534 4.714 3.001 5.314 4.562.06.093.09.21.12.3"/></g><path fill="#ffad69" d="M214.652 220.548c-2.137-1.281-1.514-1.443-3.93-1-2.608.484-8.22 3.18-11.059 5.425-.03-.003-.05-.018-.08-.024-12.856-2.206-15.116-11.31-20.314-15.62C176.388 190.43 161.872 139 161.872 139L140 147.143c3.187 21.67 16.011 62.882 19.34 72.18a9.076 9.076 0 002.038 2.747c1.09 2.309 3.051 4.536 6.22 6.37 13.113 7.59 25.524 7.696 30.272 7.393.153.153.327.285.525.396 3.217 1.759 16.413 3.482 19.495 2.47 3.133-1.03 9.548-7.53 9.086-9.332-.75-2.941-6.967-5.607-12.324-8.819"/><path fill="#377adb" d="M142.327 125.15c-6.195 13.878-3.918 57.85-3.918 57.85L178 173.595s-19.337-85.052-35.673-48.444"/><path fill="#232323" d="M176 291.399c-6.833 3.458-13.673 6.547-20.419 9.214-35.2 14.094-67.97 17.397-90.581 3.425.33-13.124.78-26.794 1.14-33.007.06-.727.12-1.364.15-1.879l12.113-.243h.54l.03-.03 65.544-1.3h.063l4.195-.094 4.197-.091 19.37-.394c.213.91.42 1.88.6 2.852 1.259 6.183 2.248 13.606 3.058 21.547"/><path fill="#4d8dff" d="M113.513 107.074c-23.653.777-31.648 8.736-35.726 22.5C73.155 145.203 65 239.6 65 271.142c0 0 70.787 5.002 110-1.408-12.296-41.401-13.624-115.84-13.871-138.02-.184-16.637-17.633-25.628-47.616-24.64"/><g clip-path="url(#l878c)"><path fill="#232323" d="M134.252 67.558c2.356-1.742 14.653-.162 11.112-24.713-1.292-8.958-9.869-2.98-15.941-1.784C123.347 42.256 127.21 68 127.21 68z"/></g><g clip-path="url(#l878c)"><path fill="#ffad69" d="M104 62c.996 6.489 2.988 41.592 2.159 49.746-.83 8.154 38.526 10.48 33.376 1.498-5.147-8.985-1.493-38.767-1.493-38.767z"/></g><g clip-path="url(#l878c)"><path fill="#d88344" d="M106.013 63L138 74.475s-2.16 17.324-.857 29.525c-24.39-1.848-30.65-32.028-31.06-37.84-.07-1.095-.103-2.151-.07-3.16"/></g><g clip-path="url(#l878c)"><path fill="#ffad69" d="M148.517 60.577c2.913 20.22 7.857 40.383-16.474 37.062-24.333-3.319-28.11-34.745-28.042-40.67.379-31.63 38.79-36.154 44.516 3.608"/></g><g clip-path="url(#l878c)"><path fill="#232323" d="M145.556 38.268c-5.81-6.77-38.471-9.325-43.878-3.329-.594-1.883.617-4.198.63-4.22L100.975 30c-.063.115-1.537 2.907-.735 5.416.027.079.094.134.12.213C94.386 36.949 98.2 63 98.2 63l6.996-.45c2.34-1.767 10.462-14.215 12.251-21.727 12.79 2.172 35.493 6.05 28.11-2.555"/></g><g clip-path="url(#l878c)"><path fill="#ffad69" d="M142.137 221.647c-2.48.137-12.103 1.804-15.48 1.023-11.353-2.643-40.61-15.725-56.358-23.037 9.69-20.966 23.951-58.072 23.951-58.072L71.824 135c-10.407 19.218-24.78 59.806-27.674 69.224a9.24 9.24 0 00-.123 2.398c-.102 3.726 1.61 7.53 6.104 10.26 12.466 7.569 59.495 14.914 72.52 16.347.24.485.559.925 1.075 1.216 3.186 1.783 17.682 3.118 20.663 3.645 3.738.658 15.085 1.616 14.596.102-.802-2.481-5.009-17.207-16.848-16.545"/></g><g clip-path="url(#l878c)"><path fill="#4d8dff" d="M85.073 114.838C72.486 123.31 51 161.84 51 161.84L89.261 175s29.015-82.506-4.188-60.162"/></g><g clip-path="url(#l878c)"><path fill="#232323" d="M124.206 54L123 53.185c2.544-4.041 6.816-3.104 7-3.062l-.314 1.456c-.138-.03-3.491-.74-5.48 2.421"/></g><g clip-path="url(#l878c)"><path fill="#232323" d="M147.59 56c-1.644-3.632-5.335-3.433-5.481-3.418L142 51.008c.199-.013 4.903-.306 7 4.332z"/></g><g clip-path="url(#l878c)"><path fill="#232323" d="M132.362 79c-2.517 0-7.357-.772-10.362-6.17l1.275-.83c3.642 6.543 10.177 5.35 10.454 5.295l.271 1.58c-.024.006-.652.125-1.638.125"/></g><g clip-path="url(#l878c)"><path fill="#d88344" d="M144 72l-7-.099.02-1.499 5.048.072-3.116-11.051 1.38-.423z"/></g><g clip-path="url(#l878c)"><path fill="#ffad69" d="M109.586 64.943c2.17 5.116 4.893 10.065-1.93 10.983-6.821.922-9.995-7.081-10.381-8.65-2.065-8.367 8.037-12.392 12.31-2.333"/></g><g clip-path="url(#l878c)"><path fill="#fff" d="M297.734 245H10.266C7.92 245 6 242.975 6 240.5s1.92-4.5 4.266-4.5h287.468c2.346 0 4.266 2.025 4.266 4.5s-1.92 4.5-4.266 4.5"/></g><g clip-path="url(#l878c)"><path fill="#d8d5db" d="M116.736 245H8.264C5.92 245 4 242.975 4 240.5s1.919-4.5 4.264-4.5h108.472c2.345 0 4.264 2.025 4.264 4.5s-1.919 4.5-4.264 4.5"/></g><g clip-path="url(#l878c)"><path fill="#2b2b2b" d="M282.946 229h-88.82c-3.39 0-5.64-2.771-5.024-6.188l9.686-53.624c.62-3.42 3.87-6.188 7.266-6.188h88.817c3.393 0 5.644 2.768 5.027 6.188l-9.686 53.624c-.62 3.417-3.87 6.188-7.266 6.188"/></g><g clip-path="url(#l878c)"><path fill="#232323" d="M285.946 229h-88.82c-3.39 0-5.64-2.771-5.024-6.188l9.686-53.624c.617-3.42 3.87-6.188 7.263-6.188h88.817c3.396 0 5.647 2.768 5.03 6.188l-9.69 53.624c-.615 3.417-3.868 6.188-7.262 6.188"/></g><g clip-path="url(#l878c)"><path fill="#232323" d="M179 231c0 2.75 2.271 5 5.048 5h92.904c2.777 0 5.048-2.25 5.048-5z"/></g><g clip-path="url(#l878c)"><path fill="#2b2b2b" d="M152 231c0 2.75 2.286 5 5.085 5h36.827c2.799 0 5.088-2.25 5.088-5z"/></g></svg>