<svg width="52" height="52" xmlns="http://www.w3.org/2000/svg"><g id="Page-1" stroke="none" stroke-width="1" fill="none" fill-rule="evenodd" opacity=".8"><g id="fullhd" transform="translate(-271 -4874)" fill="#0E54A2" fill-rule="nonzero"><g id="Group-14" transform="translate(271 4874)"><g id="left-arrow-(1)-copy"><path d="M25.956 0C11.599 0 0 11.586 0 25.956s11.586 25.956 25.956 25.956 25.956-11.586 25.956-25.956S40.312 0 25.956 0zm0 48.441A22.437 22.437 0 013.47 25.956 22.437 22.437 0 0125.956 3.47 22.437 22.437 0 0148.44 25.956 22.437 22.437 0 0125.956 48.44z" id="Shape"/><path d="M20.255 25.784l10.03-10.028c.685-.7.685-1.742 0-2.428-.687-.686-1.73-.686-2.429 0L16.613 24.57c-.343.344-.514.687-.514 1.214 0 .515.171.871.514 1.215l11.415 11.414c.343.343.686.514 1.214.514.343 0 .87-.171 1.042-.686.686-.686.686-1.728 0-2.428L20.255 25.784z" id="Path"/></g></g></g></g></svg>