<svg width="0" height="0" class="hidden">
  <symbol xmlns="http://www.w3.org/2000/svg" viewBox="0 0 20 20" id="VK">
    <path d="M10 .4C4.698.4.4 4.698.4 10s4.298 9.6 9.6 9.6 9.6-4.298 9.6-9.6S15.302.4 10 .4zm3.692 10.831s.849.838 1.058 1.227c.006.008.009.016.011.02.085.143.105.254.063.337-.07.138-.31.206-.392.212h-1.5c-.104 0-.322-.027-.586-.209-.203-.142-.403-.375-.598-.602-.291-.338-.543-.63-.797-.63a.305.305 0 0 0-.095.015c-.192.062-.438.336-.438 1.066 0 .228-.18.359-.307.359h-.687c-.234 0-1.453-.082-2.533-1.221-1.322-1.395-2.512-4.193-2.522-4.219-.075-.181.08-.278.249-.278h1.515c.202 0 .268.123.314.232.054.127.252.632.577 1.2.527.926.85 1.302 1.109 1.302a.3.3 0 0 0 .139-.036c.338-.188.275-1.393.26-1.643 0-.047-.001-.539-.174-.775-.124-.171-.335-.236-.463-.26a.55.55 0 0 1 .199-.169c.232-.116.65-.133 1.065-.133h.231c.45.006.566.035.729.076.33.079.337.292.308 1.021-.009.207-.018.441-.018.717 0 .06-.003.124-.003.192-.01.371-.022.792.24.965a.216.216 0 0 0 .114.033c.091 0 .365 0 1.107-1.273a9.718 9.718 0 0 0 .595-1.274c.015-.026.059-.106.111-.137a.266.266 0 0 1 .124-.029h1.781c.194 0 .327.029.352.104.044.119-.008.482-.821 1.583l-.363.479c-.737.966-.737 1.015.046 1.748z"></path>
  </symbol>

  <symbol xmlns="http://www.w3.org/2000/svg" viewBox="0 0 19.2 19.2" id="INST">
    <path d="M13.498 6.651a1.656 1.656 0 0 0-.95-.949 2.766 2.766 0 0 0-.928-.172c-.527-.024-.685-.03-2.02-.03s-1.493.006-2.02.03a2.766 2.766 0 0 0-.929.172 1.656 1.656 0 0 0-.949.95 2.766 2.766 0 0 0-.172.928c-.024.527-.03.685-.03 2.02s.006 1.493.03 2.02a2.766 2.766 0 0 0 .172.929 1.656 1.656 0 0 0 .95.949 2.766 2.766 0 0 0 .928.172c.527.024.685.029 2.02.029s1.493-.005 2.02-.03a2.766 2.766 0 0 0 .929-.171 1.656 1.656 0 0 0 .949-.95 2.766 2.766 0 0 0 .172-.928c.024-.527.029-.685.029-2.02s-.005-1.493-.03-2.02a2.766 2.766 0 0 0-.171-.929zM9.6 12.168A2.568 2.568 0 1 1 12.168 9.6 2.568 2.568 0 0 1 9.6 12.168zm2.669-4.637a.6.6 0 1 1 .6-.6.6.6 0 0 1-.6.6zM11.267 9.6A1.667 1.667 0 1 1 9.6 7.933 1.667 1.667 0 0 1 11.267 9.6zM9.6 0a9.6 9.6 0 1 0 9.6 9.6A9.6 9.6 0 0 0 9.6 0zm4.97 11.661a3.67 3.67 0 0 1-.233 1.214 2.556 2.556 0 0 1-1.462 1.462 3.67 3.67 0 0 1-1.213.233c-.534.024-.704.03-2.062.03s-1.528-.006-2.062-.03a3.67 3.67 0 0 1-1.213-.233 2.556 2.556 0 0 1-1.462-1.462 3.67 3.67 0 0 1-.233-1.213c-.024-.534-.03-.704-.03-2.062s.006-1.528.03-2.062a3.67 3.67 0 0 1 .232-1.213 2.556 2.556 0 0 1 1.463-1.463 3.67 3.67 0 0 1 1.213-.232c.534-.024.704-.03 2.062-.03s1.528.006 2.062.03a3.67 3.67 0 0 1 1.213.232 2.556 2.556 0 0 1 1.462 1.463 3.67 3.67 0 0 1 .233 1.213c.024.534.03.704.03 2.062s-.006 1.528-.03 2.062z"></path>
  </symbol>

  <symbol role="img" xmlns="http://www.w3.org/2000/svg" viewBox="0 0 24 24" id="FB">
    <path d="M24 12.073c0-6.627-5.373-12-12-12s-12 5.373-12 12c0 5.99 4.388 10.954 10.125 11.854v-8.385H7.078v-3.47h3.047V9.43c0-3.007 1.792-4.669 4.533-4.669 1.312 0 2.686.235 2.686.235v2.953H15.83c-1.491 0-1.956.925-1.956 1.874v2.25h3.328l-.532 3.47h-2.796v8.385C19.612 23.027 24 18.062 24 12.073z"></path>
  </symbol>

  <symbol xmlns="http://www.w3.org/2000/svg" viewBox="0 0 32 32" id="TG">
    <path d="M16 0.5c-8.563 0-15.5 6.938-15.5 15.5s6.938 15.5 15.5 15.5c8.563 0 15.5-6.938 15.5-15.5s-6.938-15.5-15.5-15.5zM23.613 11.119l-2.544 11.988c-0.188 0.85-0.694 1.056-1.4 0.656l-3.875-2.856-1.869 1.8c-0.206 0.206-0.381 0.381-0.781 0.381l0.275-3.944 7.181-6.488c0.313-0.275-0.069-0.431-0.482-0.156l-8.875 5.587-3.825-1.194c-0.831-0.262-0.85-0.831 0.175-1.231l14.944-5.763c0.694-0.25 1.3 0.169 1.075 1.219z"></path>
  </symbol>
</svg>