<svg width="60" height="60" xmlns="http://www.w3.org/2000/svg"><g id="Page-1" stroke="none" stroke-width="1" fill="none" fill-rule="evenodd"><g id="Desktop-HD" transform="translate(-952 -1263)" fill="#FF9100" fill-rule="nonzero"><g id="Group-10" transform="translate(117 1123)"><g id="Group-9" transform="translate(590)"><g id="correct" transform="translate(245 140)"><path d="M43.261 20.48c.916.916.916 2.4 0 3.315L27.538 39.52a2.345 2.345 0 01-3.315 0l-7.484-7.485a2.343 2.343 0 113.314-3.314l5.828 5.827 14.066-14.066a2.344 2.344 0 013.314 0zM60 30c0 16.582-13.42 30-30 30C13.418 60 0 46.58 0 30 0 13.418 13.42 0 30 0c16.582 0 30 13.42 30 30zm-4.688 0C55.313 16.008 43.99 4.687 30 4.687 16.008 4.688 4.687 16.01 4.687 30 4.688 43.992 16.01 55.313 30 55.313c13.992 0 25.313-11.323 25.313-25.313z" id="Shape"/></g></g></g></g></g></svg>